/* XPM */
static const char *kollectible[] = {
/* columns rows colors chars-per-pixel */
"64 64 212 2 ",
"   c #5D5730",
".  c #6A5A2D",
"X  c #79662B",
"o  c #7B7438",
"O  c #716733",
"+  c #776C4A",
"@  c #7E7556",
"#  c #716D4C",
"$  c #5A5E61",
"%  c #767264",
"&  c #6F7271",
"*  c #5F5944",
"=  c #BF7C1B",
"-  c #8F5A22",
";  c #866D29",
":  c #89772D",
">  c #937C2D",
",  c #987827",
"<  c #887833",
"1  c #947B36",
"2  c #9B6D28",
"3  c #A67C25",
"4  c #A47127",
"5  c #9A5D5D",
"6  c #877C49",
"7  c #9E625F",
"8  c #847C58",
"9  c #8E7844",
"0  c #9D6161",
"q  c #827E71",
"w  c #A46960",
"e  c #A36A6B",
"r  c #AB7362",
"t  c #B37E64",
"y  c #A67171",
"u  c #AD7B7B",
"i  c #A36D70",
"p  c #7F8267",
"a  c #B8871F",
"s  c #9B832D",
"d  c #97842E",
"f  c #988532",
"g  c #9D8A32",
"h  c #948633",
"j  c #8C8030",
"k  c #A88728",
"l  c #B48921",
"z  c #B68724",
"x  c #AA942E",
"c  c #B6992D",
"v  c #A38E31",
"b  c #AA8C38",
"n  c #A69232",
"m  c #AB9531",
"M  c #AE9930",
"N  c #AD9538",
"B  c #B49B31",
"V  c #B99E33",
"C  c #BCA12D",
"Z  c #BDA231",
"A  c #B4A237",
"S  c #C58C1D",
"D  c #CA951E",
"F  c #C9961E",
"G  c #D39B1C",
"H  c #DA9D1B",
"J  c #D58A19",
"K  c #E29718",
"L  c #F79613",
"P  c #DDA11A",
"I  c #DBA81D",
"U  c #EBAA19",
"Y  c #E3A51A",
"T  c #F5AB17",
"R  c #F9B318",
"E  c #F7B619",
"W  c #EFB21C",
"Q  c #C39724",
"!  c #C29F30",
"~  c #C6A82F",
"^  c #CCAD2F",
"/  c #C8A32B",
"(  c #D6AB28",
")  c #D3B22F",
"_  c #D9B52E",
"`  c #DDBA2F",
"'  c #DABA26",
"]  c #C2A530",
"[  c #C4AA32",
"{  c #CBAC31",
"}  c #D0AF30",
"|  c #CCB235",
" . c #D3B331",
".. c #D8B631",
"X. c #DCBB31",
"o. c #D5BC37",
"O. c #CFB02F",
"+. c #E3BD2E",
"@. c #EABB26",
"#. c #E1BD30",
"$. c #F5BE23",
"%. c #FAC21D",
"&. c #DBC53C",
"*. c #DBC125",
"=. c #E6C12E",
"-. c #EBC42E",
";. c #E3C726",
":. c #F0C62C",
">. c #F4CB2E",
",. c #FBCE2C",
"<. c #FBC625",
"1. c #FDD22D",
"2. c #E8C734",
"3. c #FDD936",
"4. c #F2CE34",
"5. c #FFE13C",
"6. c #898345",
"7. c #94884F",
"8. c #A39650",
"9. c #898779",
"0. c #888366",
"q. c #BC8966",
"w. c #BA8666",
"e. c #B9B043",
"r. c #C59568",
"t. c #CB9D6A",
"y. c #CEA16B",
"u. c #D3A76C",
"i. c #DDB46E",
"p. c #E3BC70",
"a. c #CABF42",
"s. c #FCEC4A",
"d. c #E9C571",
"f. c #F0CD73",
"g. c #F5D474",
"h. c #F7D875",
"j. c #FCDD76",
"k. c #FFE177",
"l. c #FAE07B",
"z. c #E0D246",
"x. c #AC7E83",
"c. c #0593FC",
"v. c #0B95FC",
"b. c #239FFD",
"n. c #2BA1FB",
"m. c #32A2F9",
"M. c #51B1FE",
"N. c #5FB6FF",
"B. c #59B0F7",
"V. c #4DADFB",
"C. c #60B7FF",
"Z. c #65B9FC",
"A. c #6CBCFD",
"S. c #66B3F6",
"D. c #78BAF5",
"F. c #77C1FE",
"G. c #7BC2FE",
"H. c #949694",
"J. c #8C8E8D",
"K. c #B28384",
"L. c #B58989",
"P. c #BE9797",
"I. c #BD9EA8",
"U. c #B2AAAE",
"Y. c #9E9FA5",
"T. c #C39F9F",
"R. c #CBADAD",
"E. c #CDB0B0",
"W. c #D3B9B9",
"Q. c #AFCCBB",
"!. c #B0CCBB",
"~. c #F3DE81",
"^. c #CCD3A3",
"/. c #84BDF4",
"(. c #BEBFC6",
"). c #CBB8C5",
"_. c #94C5D2",
"`. c #A2C8C6",
"'. c #83C6FD",
"]. c #99CFFC",
"[. c #93CBFA",
"{. c #A4D3FC",
"}. c #AAD6FC",
"|. c #BADDFB",
" X c #B7DAF9",
".X c #A7C9F2",
"XX c #DCC7C8",
"oX c #D4C8D8",
"OX c #E1D1D1",
"+X c #E6DADB",
"@X c #E9DDDE",
"#X c #DEDBEE",
"$X c #D8D7E9",
"%X c #DFDDF0",
"&X c #C5DAF5",
"*X c #E1DDEE",
"=X c #EBDFE0",
"-X c #E1DFF0",
";X c #C3E0FA",
":X c #CEE5FA",
">X c #D3E7FA",
",X c #ECE3E3",
"<X c #F2EBEC",
"1X c #E3EEF9",
"2X c #E4ECF7",
"3X c #EBF1F9",
"4X c #F5F2F4",
"5X c #F8F5F6",
"6X c #F5F5F8",
"7X c #F9F7F8",
"8X c #FBF8F8",
"9X c None",
/* pixels */
"9X9Xv.c.c.c.c.n.M.N.C.C.C.C.C.C.C.C.C.C.N.{.8X7X7X7X7X7X7X7X7X7X7X7X7X7X7X7X7X7X7X8X{.N.C.C.C.C.C.C.C.C.C.C.C.C.C.C.C.C.C.C.9X9X",
"9Xc.c.c.c.c.b.N.C.C.C.C.C.C.C.C.C.C.C.N.C.;X8X7X7X7X7X7X7X7X7X7X7X7X7X7X7X7X7X7X7X8X;XC.N.C.C.C.C.C.C.C.C.C.C.C.C.C.C.C.C.C.C.9X",
"v.c.c.c.c.v.V.N.N.N.N.C.C.C.C.C.C.N.N.Z.{.6X7X7X7X7X7X7X7X8X8X8X8X8X8X7X7X7X7X7X7X7X6X{.Z.N.N.C.C.C.C.C.C.C.N.N.N.N.C.C.C.C.C.C.",
"c.c.c.c.c.v.A.{.|.|.'.N.C.C.C.C.[.|.|.>X6X7X7X7X7X7X8X8X4X,XOXXXXXOX,X4X8X8X7X7X7X7X7X6X>X|.|.[.C.C.C.C.N.'.|.|.{.G.C.N.C.C.C.C.",
"c.c.c.c.v.D.2X8X8X8X].N.C.C.C.N.|.8X8X8X7X7X7X7X8X7X,XE.K.i 0 0 0 0 i K.E.=X8X8X7X7X7X7X8X8X8X|.N.C.C.C.N.].8X8X8X3X}.Z.N.C.C.C.",
"c.c.c.c.S.#X4X7X7X7X].N.C.C.C.N.|.8X7X7X7X7X7X8X<XR.y 5 5 5 5 5 5 5 5 5 5 y R.<X8X7X7X7X7X7X8X|.N.C.C.C.N.].7X7X7X8X6X}.C.C.C.C.",
"c.c.c.n.&X*X4X7X7X7X{.N.C.C.C.C.;X8X7X7X7X7X8X@XL.5 5 5 5 5 5 5 5 5 5 5 5 5 5 L.@X8X7X7X7X7X8X;XC.C.C.C.N.{.7X7X7X7X7X3XG.N.C.C.",
"c.c.c.S.#X*X4X7X7X8X:XZ.N.N.N.F.1X8X7X7X7X8X+Xu 5 5 5 5 7 r q.r.r.q.r 7 5 5 5 5 u +X8X7X7X7X8X1XF.N.N.N.Z.:X8X7X7X7X7X8X{.N.C.C.",
"c.c.c.D.*X*X4X7X7X7X6X|.F.A.'.:X7X7X7X7X8X,XK.5 5 5 5 t i.g.j.k.k.j.g.i.t 5 5 5 5 K.,X8X7X7X7X7X:X'.A.F.|.6X7X7X7X7X7X8X|.N.C.C.",
"c.c.c./.*X#X4X8X7X7X7X7X3X1X6X8X7X7X7X7X5XT.5 5 5 7 t.h.k.k.k.k.k.k.k.k.h.t.7 5 5 5 T.5X7X7X7X7X8X6X1X3X7X7X7X7X8X7X7X8X|.N.C.C.",
"c.c.c.m.B.B.[.:X6X7X7X7X7X8X7X7X7X7X7X8XOXe 5 5 7 y.j.k.k.k.k.k.k.k.k.k.k.j.y.7 5 5 e OX8X7X7X7X7X7X8X7X7X7X7X6X:X{.].].'.C.C.C.",
"c.c.c.c.c.v.M.Z.|.7X7X7X7X7X7X7X7X7X8X5XP.5 5 5 q.j.k.k.k.k.k.k.k.k.k.k.k.k.j.q.5 5 5 P.5X8X7X7X7X7X7X7X7X7X7X|.Z.N.N.N.N.C.C.C.",
"c.c.c.c.c.v.M.N.F.3X7X7X7X8X8X4X4X4X4X@Xy 5 5 w d.k.k.k.k.k.k.k.k.k.k.k.k.k.k.d.w 5 5 y @X4X4X4X4X8X8X7X7X7X3XF.N.C.C.C.C.C.C.C.",
"c.c.c.c.c.v.M.C.A.1X8X7X8X4XW.L.K.K.K.u 0 5 5 w.j.k.k.k.k.k.~.Q.Q.~.k.k.k.k.k.j.w.5 5 0 u K.K.K.L.W.4X7X7X8X1XA.N.C.C.C.C.C.C.C.",
"c.c.c.c.c.v.M.N.'.6X7X7X8XW.0 5 5 5 5 5 5 5 5 u.k.k.k.k.k.~._.C.C._.~.k.k.k.k.k.u.5 5 5 5 5 5 5 5 0 W.8X7X7X6X'.N.C.C.C.C.C.C.C.",
"c.c.c.c.c.v.M.F.:X8X7X7X4XL.5 5 5 5 5 5 5 5 7 d.k.k.k.k.l.`.N.C.C.N.`.l.k.k.k.k.d.7 5 5 5 5 5 5 5 5 L.4X7X7X8X:XF.C.N.N.N.C.C.C.",
"c.c.c.V././. X1X7X7X7X7X4XK.5 5 5 w w w w w t g.k.k.k.H.9.9.q U.H.C.Z.^.k.k.k.k.g.t w w w w w 5 5 5 K.4X7X7X7X7X1X;X|.|.[.C.C.C.",
"c.c.c./.*X*X4X8X7X7X7X7X4XK.5 5 w p.f.f.f.f.g.k.k.8 8.e. .#.n N  .N @ _.l.k.k.k.k.g.f.f.f.f.p.w 5 5 K.4X7X7X7X7X8X8X8X8X|.N.C.C.",
"c.c.c./.*X*X4X7X7X7X7X7X4XK.5 5 w f.k.k.k.k.k.7.V ....[ ) ^ M V ~ x : 6 8.8.6 0.% k.k.k.k.k.f.w 5 5 K.4X8X7X7X7X7X7X7X8X|.N.C.C.",
"c.c.v..X*X*X4X7X7X7X8X5X@Xu 5 5 w f.k.k.k.0.V _ ] m m Z { ~ < 6.A { .. .^ ^ ) @./ 7.J.k.k.k.f.w 5 5 u @X5X8X7X7X7X7X7X8X>XZ.N.C.",
"c.v.S.$X#X*X4X7X8X5XOXP.y 0 5 5 w f.k.k.0.^ ) Z B ) :.] d v  .&.[ M m Z ^ n n v  .^ # H.k.k.f.w 5 5 5 y P.OX5X8X7X7X7X7X6X{.C.N.",
"S.[.$X#X#X*X4X8X,XT.e 5 5 5 5 5 w f.k.8 ( C m =.<.,.c   d -.X.n B ) =.<.<.>.-. .f  .=.6 k.k.f.w 5 5 5 5 5 e T.,X8X7X7X7X7X6X;X{.",
"*X*X#X#X#X*X6X+XK.5 5 5 5 5 5 7 t g.% / ^ g ` ,.,.B X C V m ) ) ] ( _ @.:.,.1.1.~ ` s.+ k.k.g.t 7 5 5 5 5 5 5 K.+X8X7X7X7X7X8X8X",
"#X#X#X#X#X-X+Xu 5 5 5 5 w w.u.d.g.k.6 :.g  .1.>.B . ) 1.m Z >.B < > > d s s _ 1.=.>.4.O & k.k.g.d.u.w.w 5 5 5 5 u @X8X7X7X7X7X7X",
"#X#X#X#X#X$XK.5 5 5 7 q.d.j.k.k.k.k.# ^ g +.-.] . : <. .< ] B g < < o O O f  .[ >.1.V 3 O 8 k.k.k.k.j.d.q.7 5 5 5 L.<X8X7X7X7X7X",
"#X#X#X#X#XI.5 5 5 7 y.j.k.k.k.k.k.H.h B < g o g h : x < < V { ) ....o.o.{ B o n -.{ , J 3 X.7.k.k.k.k.k.j.y.7 5 5 5 R.8X7X7X7X7X",
"#X#X#X#XoXi 5 5 5 t.j.k.k.k.k.k.k.0.7.| =.=.B X.,.x : ( ) Z Z M B B m M #.X.B n f ; D X s  .] # k.k.k.k.k.j.t.5 5 5 y ,X8X7X7X7X",
"#X#X#X%XI.5 5 5 t h.k.k.k.k.k.9.b _ o.Z [ [ n v < x :.B g Z @.@.=.=...O...B n =.>.x 3   { m m X.8.Y.k.k.k.k.h.t 5 5 5 E.8X7X7X7X",
"#X#X#X$Xx.5 5 7 i.k.k.k.k.k.6 { ^ M m Z O.=.-.{   Z B n +.1.<.<.+.Z h f ` >.B f >.$.; v 1.` g -.=.7.k.k.k.k.k.i.7 5 5 K.4X7X7X7X",
"#X#X#XoXi 5 5 r g.k.k.k.k.6._ Z m [ -.^ h V 1.Z Z 2.n =.1.>._ x > d x ] :.1.,.g +.1.B O.1.1.n [ <.b k.k.k.k.k.g.r 5 5 i ,X8X7X7X",
"#X#X%X).0 5 5 q.j.k.k.k.6 _ B { @.<.) > v -.1.m e.5.) =.1.~ : g Z ` >.1.1.1.:.] ,.1.g g +.+.Z -.1.V ~.k.k.k.k.j.q.5 5 0 OX8X7X7X",
"#X#X%X).0 5 5 r.k.k.k.8 ( B B -.<._ > n =.1.1.f o 4.1.>.) ` X.2.s.5.1.,.-.>.,.3.3.-.O > x < v +.>.6.Q.k.k.k.k.k.r.5 5 0 XX8X7X7X",
"#X#X%X).0 5 5 r.k.k.k.B +.g =.1.=.s g X.3.1.) : , x >.1.=.^ { [ | | Z B  .=.>.~ ^ s : n ( ..{ v : & Q.k.k.k.k.k.r.5 5 0 XX8X7X7X",
"#X#X%X).0 5 5 q.j.k.& B ] m 1.,.x d  .s.z.[ ] c = z , ] -.1.1.>.:.:.:.>.1.! z > - D x f m M [ _ Z @ U.k.k.k.k.j.q.5 5 0 OX8X7X7X",
"#X#X#XoXi 5 5 r g.k.H.f  .M >.,.+.#.X.| { -.1.O.X , P l h v C ( ( ( ( } C ; - 3 3 D > >.>.=._ n C ` 7.H.k.k.k.g.r 5 5 i ,X8X7X7X",
"#X#X#X$Xx.5 5 7 i.k.9.&.5.#.-.X.{ { ..-.,.$.c , 2 . H E E Q l l z 3 , = D k S E G ; O.>.,.<.<.` M B &.8.H.k.k.i.7 5 5 K.4X7X7X7X",
"#X#X#X%XI.5 5 5 t h.% o &.1.1.1.1.1.1.=.Q , 3 K L a . k Y %.E R R R T L T U P a s m -.n s c ) -.-.B B 2.7.U.h.t 5 5 5 E.8X7X7X7X",
"#X#X#X#XoXi 5 5 5 t.g < ; x C ~ Z m s , S U R R G , Z M s h B l S G D l , , , X -.=.[ ` v f > > v  .Z ` +.8 t.5 5 5 y ,X8X7X7X7X",
"#X#X#X#X#XI.5 5 5 8 B v ; J z S Q ( P U R U P k O ) 1.^ ..[ h o ; : : d n 3 E c B 1.O.{ 3.2.{ B h v 2.B Z + 7 5 5 5 R.7X7X7X7X7X",
"#X#X#X#X#X$XK.5 5 A 3.~ s 3 X G U T E ;./ , O ; k v >.>.] O.3.s.3.1.1.1.-.; Y @.d _ 1.{ a.s.3.1.>.=.,.Z M +.7.5 5 L.<X8X7X7X7X7X",
"#X#X#X#X#X-X+Xu 5 6.5.-.+.{ h s , s g n B #.Z   U l f =.1.` [ z.2.>.1.1.1.x a E Q > +.,._ Z =.1.1.1.1...v 1.V 5 u @X8X7X7X7X7X7X",
"*X*X#X#X#X*X6X+XK.O O.1.1. .^  .o.z.z.2.=._ X.g D R / : ( 1.,.+.{ B ^ _ 1.X.> *.E H , ( ,.-.B ^ =.1.>.] v ,./ K.+X8X7X7X7X7X8X8X",
"S.[.$X#X#X*X4X8X,X3 , ] >.1.-._ ^ [ { [ Z +.+.Z : Y E D k k ( <.1.>.>.+.>.2.&.h I R Y , c >.1.-.+.1.=. .>.,.! H.8X7X7X7X7X6X;X{.",
"c.v.S.$X#X*X4X7X8X2 S k s B +.,.1.,.,.,.1.1./ 4 X O ' %.R G k , B ) #.3 / , ! > . G R Y 3 s { ) c -.2.3.1.=.6 8X7X7X7X7X6X{.C.N.",
"c.c.v..X*X*X4X7X7X% . P U C , > x l l k x k ; - G k ; x P R R H S z , - 2 X 4 / ; ; D T L K k - 2 k k X.^ o H.7X7X7X7X8X>XZ.N.C.",
"c.c.c./.*X*X4X7X7X7X& k P E W Y P G G S J K H D T Q 8 J.+ z P T L T G S U a D k l K ; , D T H z S - 4 k ; $ 7X7X7X7X7X8X|.N.C.C.",
"c.c.c./.*X*X4X8X7X7X7XH.+ z ' <.E E R R L K H z < 9.$Xl._.N.@ 1 , z D H D k # * 1 9 + $ # 3 D U U G G ] 8 7X7X7X8X8X8X8X|.N.C.C.",
"c.c.c.V././. X1X7X7X7X7X4XU.p 6.< , b 3 , + @ H.k.k.k.k.^.Z.N.C.C.q 9.% J.U.k.k.g.t w w w w q 6 9 1 # 9.7X7X7X7X1X;X|.|.[.C.C.C.",
"c.c.c.c.c.v.M.F.:X8X7X7X4XL.5 5 5 5 (.5 5 5 7 d.k.k.k.k.l.`.N.C.C.N.`.l.k.k.k.k.d.7 5 5 5 5 5 5 5 5 L.4X7X7X8X:XF.C.N.N.N.C.C.C.",
"c.c.c.c.c.v.M.N.'.6X7X7X8XW.0 5 5 5 5 5 5 5 5 u.k.k.k.k.k.~._.C.C._.~.k.k.k.k.k.u.5 5 5 5 5 5 5 5 0 W.8X7X7X6X'.N.C.C.C.C.C.C.C.",
"c.c.c.c.c.v.M.C.A.1X8X7X8X4XW.L.K.K.K.u 0 5 5 w.j.k.k.k.k.k.~.Q.!.~.k.k.k.k.k.j.w.5 5 0 u K.K.K.L.W.4X7X7X8X1XA.N.C.C.C.C.C.C.C.",
"c.c.c.c.c.v.M.N.F.3X7X7X7X8X8X4X4X4X4X@Xy 5 5 w d.k.k.k.k.k.k.k.k.k.k.k.k.k.k.d.w 5 5 y @X4X4X4X4X8X7X7X7X7X3XF.N.C.C.C.C.C.C.C.",
"c.c.c.c.c.v.M.Z.|.7X7X7X7X7X7X7X7X7X8X5XP.5 5 5 q.j.k.k.k.k.k.k.k.k.k.k.k.k.j.q.5 5 5 P.5X8X7X7X7X7X7X7X7X7X7X|.Z.N.N.N.N.C.C.C.",
"c.c.c.m.B.B.[.:X6X7X7X7X7X8X7X7X7X7X7X8XOXe 5 5 7 y.j.k.k.k.k.k.k.k.k.k.k.j.y.7 5 5 e OX8X7X7X7X7X7X8X7X7X7X7X6X:X{.].].'.C.C.C.",
"c.c.c./.*X#X4X8X7X7X7X7X3X1X6X8X7X7X7X7X5XT.5 5 5 7 t.h.k.k.k.k.k.k.k.k.h.t.7 5 5 5 T.5X7X7X7X7X8X6X1X3X7X7X7X7X8X7X7X8X|.N.C.C.",
"c.c.c.D.*X*X4X7X7X7X6X|.F.A.'.:X7X7X7X7X8X,XK.5 5 5 5 t i.g.j.k.k.j.g.i.t 5 5 5 5 K.,X8X7X7X7X7X>X'.A.F.|.6X7X7X7X7X7X8X|.N.C.C.",
"c.c.c.S.#X*X4X7X7X8X:XZ.N.N.N.F.1X8X7X7X7X8X+Xu 5 5 5 5 7 r q.r.r.q.r 7 5 5 5 5 u +X8X7X7X7X8X1XF.N.N.N.Z.:X8X7X7X7X7X7X{.N.C.C.",
"c.c.c.n.&X*X4X8X7X7X{.N.C.C.C.C.;X8X7X7X7X7X8X@XL.5 5 5 5 5 5 5 5 5 5 5 5 5 5 L.@X8X7X7X7X7X8X;XC.C.C.C.N.{.7X7X7X7X7X3XG.N.C.C.",
"c.c.c.c.S.#X4X7X7X7X].N.C.C.C.N.|.8X7X7X7X7X7X8X<XR.y 5 5 5 5 5 5 5 5 5 5 y R.<X8X7X7X7X7X7X8X|.N.C.C.C.N.].7X7X7X8X6X}.C.C.C.C.",
"c.c.c.c.v.D.2X8X8X8X].N.C.C.C.N.|.8X8X8X7X7X7X7X8X8X,XE.K.i 0 0 0 0 i K.E.,X7X8X7X7X7X7X8X8X8X|.N.C.C.C.N.].8X8X8X3X}.Z.C.C.C.C.",
"c.c.c.c.c.v.A.{.|.|.'.N.C.C.C.N.[.|.|.>X6X7X7X7X7X7X8X8X4X,XOXXXXXOX,X4X8X8X7X7X7X7X7X6X>X|.|.[.N.C.C.C.N.'.|.|.{.G.C.N.C.C.C.C.",
"v.c.c.c.c.v.V.N.N.N.C.C.C.C.C.C.C.N.N.Z.{.6X7X7X7X7X7X7X7X8X8X8X8X8X8X8X7X7X7X7X7X7X6X{.Z.N.N.C.C.C.C.C.C.C.N.N.N.N.C.C.C.C.C.C.",
"9Xc.c.c.c.c.b.N.C.C.C.C.C.C.C.C.C.C.C.N.C.;X8X7X7X7X7X7X7X7X7X7X7X7X7X7X7X7X7X7X7X8X;XC.N.C.C.C.C.C.C.C.C.C.C.C.C.C.C.C.C.C.C.9X",
"9X9Xv.c.c.c.c.n.M.N.C.C.C.C.C.C.C.C.C.C.N.{.8X7X7X7X7X7X7X7X7X7X7X7X7X7X7X7X7X7X7X8X{.N.C.C.C.C.C.C.C.C.C.C.C.C.C.C.C.C.C.C.9X9X"
};
