/* XPM */
static const char *door[] = {
/* columns rows colors chars-per-pixel */
"64 64 212 2 ",
"   c #251505",
".  c #291605",
"X  c #2D1905",
"o  c #251709",
"O  c #271B0F",
"+  c #2B1B0C",
"@  c #321B05",
"#  c #391E04",
"$  c #321E0A",
"%  c #2B1E13",
"&  c #3E2104",
"*  c #34200D",
"=  c #3B240C",
"-  c #2B2117",
";  c #2D241C",
":  c #322314",
">  c #392613",
",  c #3D2812",
"<  c #32261A",
"1  c #35291E",
"2  c #3A2A1B",
"3  c #2F2720",
"4  c #2F2821",
"5  c #332B24",
"6  c #392E22",
"7  c #352F28",
"8  c #3D3124",
"9  c #37312B",
"0  c #3A332C",
"q  c #3C3731",
"w  c #3E3933",
"e  c #442504",
"r  c #492704",
"t  c #472807",
"y  c #4D2904",
"u  c #43270A",
"i  c #44280C",
"p  c #4C2D0C",
"a  c #542D04",
"s  c #582F04",
"d  c #522E0A",
"f  c #573006",
"g  c #53300C",
"h  c #5D340A",
"j  c #432C13",
"k  c #473019",
"l  c #4C341C",
"z  c #543411",
"x  c #593612",
"c  c #5D3912",
"v  c #54381B",
"b  c #5B3B1A",
"n  c #60360A",
"m  c #63390E",
"M  c #693C0F",
"N  c #613B13",
"B  c #6A3E11",
"V  c #433426",
"C  c #42362A",
"Z  c #45382A",
"A  c #49392A",
"S  c #533C24",
"D  c #513D28",
"F  c #423C35",
"G  c #433E38",
"H  c #6D4216",
"J  c #6C441B",
"K  c #744516",
"L  c #784817",
"P  c #704519",
"I  c #7A4A18",
"U  c #5A442D",
"Y  c #4D4134",
"T  c #46413B",
"R  c #4A443E",
"E  c #534434",
"W  c #5C4730",
"Q  c #51473C",
"!  c #594B3C",
"~  c #6A4622",
"^  c #6E4925",
"/  c #65472B",
"(  c #6A4C2E",
")  c #734A20",
"_  c #654B33",
"`  c #694E31",
"'  c #6B523B",
"]  c #735434",
"[  c #4A4640",
"{  c #4D4A44",
"}  c #514C46",
"|  c #534E49",
" . c #56514B",
".. c #59544E",
"X. c #5F584F",
"o. c #5B5751",
"O. c #5E5953",
"+. c #5E565B",
"@. c #604E45",
"#. c #665245",
"$. c #6A594A",
"%. c #715D47",
"&. c #755E48",
"*. c #655754",
"=. c #625D56",
"-. c #635F58",
";. c #7C6349",
":. c #6A6056",
">. c #66615A",
",. c #6A645D",
"<. c #756657",
"1. c #5A5A6C",
"2. c #5A6078",
"3. c #6C6760",
"4. c #6E6963",
"5. c #716B65",
"6. c #736E69",
"7. c #76716C",
"8. c #79736D",
"9. c #676876",
"0. c #6F707C",
"q. c #7B7771",
"w. c #7E7973",
"e. c #817C76",
"r. c #847F79",
"t. c #85817C",
"y. c #7A7B85",
"u. c #0593FC",
"i. c #0B95FC",
"p. c #239FFD",
"a. c #2BA1FB",
"s. c #32A2F9",
"d. c #45ACFE",
"f. c #4CABF8",
"g. c #54ADF7",
"h. c #51B1FE",
"j. c #5FB6FF",
"k. c #6CB5F6",
"l. c #60B7FF",
"z. c #65B9FC",
"x. c #6CBCFD",
"c. c #77C1FE",
"v. c #898681",
"b. c #8D8984",
"n. c #8F8C88",
"m. c #908981",
"M. c #928E8A",
"N. c #96918C",
"B. c #99938D",
"V. c #969490",
"C. c #9A9691",
"Z. c #9D9996",
"A. c #9F9C99",
"S. c #A29E9B",
"D. c #A5A29F",
"F. c #A9A49F",
"G. c #A7A5A2",
"H. c #ADAAA6",
"J. c #AFACA9",
"K. c #B2AFAB",
"L. c #B3B0AD",
"P. c #B8B4AF",
"I. c #B7B5B2",
"U. c #B9B5B2",
"Y. c #BCB9B6",
"T. c #BFBCBA",
"R. c #C1BFBC",
"E. c #C3C1BE",
"W. c #84BDF4",
"Q. c #94CDFC",
"!. c #A4D3FC",
"~. c #BADDFB",
"^. c #C6C4C2",
"/. c #C8C6C5",
"(. c #CCC9C6",
"). c #CECCCA",
"_. c #D0CFCD",
"`. c #D3D1CE",
"'. c #D4C8D8",
"]. c #D5D3D2",
"[. c #D9D7D4",
"{. c #D9D8D7",
"}. c #DDDCDA",
"|. c #DEDEDD",
" X c #E0DEDD",
".X c #E2E0DF",
"XX c #C9D4EF",
"oX c #D4D8EF",
"OX c #DEDBEE",
"+X c #E1DDEE",
"@X c #C3E0FA",
"#X c #CEE5FA",
"$X c #D3E7FA",
"%X c #E5E4E3",
"&X c #E8E7E6",
"*X c #E9E8E7",
"=X c #EFEFEF",
"-X c #F0F0EF",
";X c #EFF0F0",
":X c #F1F1F1",
">X c #F5F2F4",
",X c gray96",
"<X c #F8F8F7",
"1X c #F3F4F8",
"2X c #F7F6F8",
"3X c #F9F7F8",
"4X c #F7F8F8",
"5X c #F9F9F9",
"6X c #FBF8F8",
"7X c #FCF8F8",
"8X c gray99",
"9X c None",
/* pixels */
"9X9Xi.u.u.u.u.a.h.j.l.l.l.l.l.l.l.l.l.l.j.!.5X3X3X3X3X3X3X3X3X3X3X3X3X3X3X3X3X3X3X5X!.j.l.l.l.l.l.l.l.l.l.l.l.l.l.l.l.l.l.l.9X9X",
"9Xu.u.u.u.u.p.j.l.l.l.l.l.l.l.l.l.l.l.j.l.@X5X3X3X3X3X3X3X3X3X3X3X3X3X3X3X3X3X3X3X5X@Xl.j.l.l.l.l.l.l.l.l.l.l.l.l.l.l.l.l.l.l.9X",
"i.u.5X=X=X5Xd.j.:X=X,Xl.l.,X=X:Xl.j.5X=X=X5X3X3X=XR.v.4.4.6.n.Z.b.q.>.5.4.4.8.B.Y. X,X!.z.,X=X:Xl.l.5X=X=X5Xj.j.:X=X,Xl.l.,X=X=X",
"u.u.5X=X=X5Xx.!.:X=X,Xj.l.,X=X:XQ.~.5X=X:X8X,X^.b...[ [ [ [ } F G [ R 0 F ..O.>.,.w.H.=X$X,X:X:Xl.l.5X=X=X5X~.~.:X=X,Xj.l.,X=X=X",
"5X5X5X,X,X5X5X5X,X,X,X5X5X,X,X,X5X5X5X,X%XE.M. .q [ { { { { ..T T { { { G 9 F  .o.{ [ v.*X|.[.*X5X5X5X,X,X5X5X5X,X,X,X5X5X,X,X,X",
"=X=X,Xu.k.,X=X:X3X3X5X=X=X5Xl.j.:X|.J.S.e.-.=.-.} w { { { { ..w T { { { { { q ; 9 6 ; T q.6.4.w.A.|.,Xl.j.,X=X:X3X5X5X=X=X5Xl.l.",
"=X=X,Xa.XX,X=X:X3X3X5X=X=X5Xl.l.,XC.q q O.O.O.=.R 0 [ { { { R 0 [ [ { |  .T q 5 F 7 ; ..O.O.O.o.O.b.=Xl.j.,X=X:X3X3X5X=X=X5Xl.l.",
"5X5X5X,X,X5X5X5X,X,X,X5X5X4X,X|.D...F 7 F O.>.=.F ; 7 w G F 9 5 9 9 w T T q 9 0 q 9 w =.O.O.O.=.=.O.R.5X,X5X5X5X,X,X,X5X5X,X,X,X",
"u.u.5X=X=X5X>X3X:X=X,X~.c.%XK...o.=.=...w w { { 0 $ $ $ * : : $ @ @ $ : < : : < 9 7 [ -.O.O.=...=.=.7.R.).5X3X3X:X=X,X7X~.,X=X=X",
"u.u.5X:X:X5X>X5X:X:X,X3X:Xw.F } =.O.o.=.O.q 9 q 5 @ @ @ X .       .         X @ $ 2 G  .=.O...o.>.=.w T ..).3X5X:X:X,X5X~.,X:X:X",
":X:X,Xs.g.,X:X:X2X3X5X:XE.{ 9 O.O.O.O...=.T 1 5 : X .   . # e e y y y e u & X   . X * 8 T [ { =.O.[ 7 0 0 t.:X:X#X!.5X:X:X5Xl.l.",
"=X=X,Xu.u.,X=X:X~.3X8X/.O.7 ; } -.=.=.O.=.G $ @     @ r r a a a a a a y h h a r @   . @ > 8 F [ R F 7 9 5 -.%X:Xz.j.5X=X=X5Xl.l.",
",X,X,X5X5X,X,X,X5X5X].O.w w 9 9 { =.-.O.} 2 X   @ r a a y a a a a a a y h h a s a r X   . @ * 8 q w [ { T 0 B.:X5X5X4X,X,X,X5X5X",
"u.u.5X=X=X5Xh.l.:X=Xt.q w w q 7 0 F T G 6 o . e a a a a y a a a a a a y h h a a a s y @     @ @ : R { { { F 0 M.*X=X,Xl.l.,X=X=X",
"u.u.5X=X=X5Xh.j.:X:XM.9 0 9 5 5 [ 9 < :   X y a a a a a y a a a a a a y g h a a a a a y @     @ @ G { { { F 0 T I.:X,Xl.l.,X=X=X",
",X,X,X5X5X,X,X,X5X_.q...| G ; 5 w < @   . g a a a a a a y a f a a a a y h h a a a a a a h e     @ 2 [ { { F q q t.5X5X,X,X5X5X5X",
"=X=X,Xf.W.,X=X:X%X7.O.>.>.O.} : $ @   . e h a a a a a a y a a a a a a y g n a s a s a a h f &   X @ 8 [ } w 7 7 v.@X5X=X=X5Xl.l.",
":X:X,XW.+X,X:X,XU.=.O.O.o.}  .6 @ .   e y h a a a a a a y a a a a a a a d n a s a a a a h f a @   @ $ 1 0 5 7 G 6.*X5X:X:X5Xl.l.",
"u.u.5X:X:X5X>X3XK.=.=.=.=.| T 7 @   # a y h a a a a a a a a a a a a a a a n a a a a a a h f a a . . @ @ 1 T O.>.>.A.,X7X~.,X:X:X",
"u.u.5X=X=X5X>X3X^. ...=.=.{ w 5 X . y a y h a a a a a a a a a a a a a a a n a a a a a a h f a s e   @ @ V O.o.-.=.M.,X5X$X,X=X=X",
"5X5X,X,X,X,X5X%Xw.9 5 q F 8 5 :   e a a y h a a a a a a a a a a s a a a a n a a a a a a g f a f a X . @ Z =.-.>...v.:X5X5X,X,X,X",
"=X=X,XOXOX,X).q.-...5 F 0 * @ . . a a a r h f a a a a a a a a a f a a a a n a a a a a a a a a f a e   @ V -.=.[ G F C.%X:X5X@X!.",
"=X=X,XOXOX=Xt.O.O.o.9 T G 1 @   & s a a y n f a a a a a a a a a s a a a y h a a a a a a a a a s a a X . k o...T q } -.L.:X5X5X5X",
"5X5X5X:X,X}.3.O.O.[ 7 [ w 1 X   y a a a y n f a a a a a a a a a s a a a y h a a a a a y a a a a a a &   > ..o.[ w O...V.5X,X:X:X",
"OXOX5X=X:X%X7.O.} 0 9 R 9 < . @ a a y a y h f a a a a a a a a a a a a a y n a a a a a y a a a a a a r   @ R ..T 0 O. .Z.3X,X=X=X",
"OXOX5X:X:X5XG.G 0 5 5 0 5 X   & a a y a y n f a a a a a a a a a a a a a y n a a a a a y d f a a a a y X . 2 T w 5 q ..(.3X,X:X:X",
":X:X,XOX'.).8.[ G ; F F +   . d f f a a d m h f a f a a a a f a a a a a a n f a a a a a g h a f a a a @ . $ 0 T [ 5 4.=X:X5X3X3X",
":X%X).T.].M.R { q G =...: O l M M N N M M B B B M M M M M M B B B B M B B H H H B H B B B H B B B M M i   $ G R q 9 w.*X:X8X3X3X",
"^.M.r.7.H.r.[ R 9 o.=.O.< % 9 i a j j a a y a y a a a a a a a a a a a a a a a a a a a a a a a a a a a r   @ 1 7 } =.4.).[.{.=X5X",
"7.6.4.D.[.t.[ 0 0 =.=.O.1 % 9 : i = > = i y a a a a a a a a a a a a a a a a a a a a a a a a y y y a a y . @ - R O.O.o.8.t.t.b./.",
"O...G.R.^.M.R 9 9 =.O.O.6 - 7 % $ + < < 2 r a a a a a a a a a a a a a a a a a a a a a a a a a a a a a y . @ < R =.O.} w.b.7.>.7.",
"4.R 3.w.N.=.9 5 ;  .=...7 - 0 * r u * e y a a f f f h h h h h h n n h h h h n h h h f f h n h f a a a a . @ Z F R R [ B.B.M.=.| ",
"T.5...-.r.| - - - 5 G R 5 % 6 e a , b K K L L L L L L I I I I I I I I I I I L L L L L P P ) P H d y y e   @ Q ..R 5 q 4.b.>.| O.",
":X{.L.5.,.>.6 % - ; 0 w 5 o t a y d J ;.&.J H H H H H H H H H H H H H H H H H H H H H H ] 7.$.H h # @ X   @ R o.T - R 5.=.T 3.L.",
"OXOXOXZ.=.>.T - % 9  . .0 o y f a h ~ 9.9./ H H H H H H H H H H H H H H H H H H H H H H #.2.+.J H y r &   @ V O.R w =.>.8.S._.=X",
"OXOX%X-.-.7.[ T ; 5  .O.0   y f a h J #.#.J H H H H H H H H H H H H H H H H H H H H H H J ( ~ H H a y e   A ,.=.} [ -.-._.5X:X=X",
",X5X/.|  ...R ....; G O.V   r f a h H H H H H H H H H H H H H H H H H H H H H H H H H H H H H H J ` %.$.} .. .o.o.R } [ T.5X,X,X",
"=X:X].,.-.} } [ >.} 3 T 2   r f a h H H H H H H H H H H H H H H H H H H H H H H H H H H H H H H %.8.5.4.4.o.=...[  .O. .T.3X3X3X",
":X:X=Xt.q.w...T } >.9 - + . r f a a N N c c c c x x x x x x x x x x x x x x x x x x x x x x x x W o.-.} { } { ..5.e.>.q.&X5X3X3X",
"5X5X5XR.4.r.o...[  .[ ; % X t f a a h c c x x x x x c c c c c c c c c c N N N N N N c c c c c x W ..O.{ [ ..=.4.4.4.6.t.=X,X:X:X",
"OXOX5X=XV.>.5...o.>.7.7...9 t f a a h c c c c c c c c c c c c c c N N N N N N N N N N N N c c c ' { ..| [ } ..=.5.w.3.=.).,X=X=X",
"5X5X5X,X&Xt...O.} | ..>.w.5.l h a a h c c c c c c c N N N N N N N N N N N c N c N c c c c c x c U R T } { } |  . .T T o.L.5X:X:X",
":X;X,XOXOX^.| } } T | ....4.:.<.<.v h x x c c c c x x z x x x x x x x x x x x x x x x z x x x x b ! T } G 8 8 T q 9 ..o.K.1X@X!.",
"=X=X,XoXOX_.=.} [ [ R } } | ,.=.4.! c ( _ N N N N N N N N N N N N N B B B B B B B B H H J ] ~ H c S l j X @ V R 6 F =.| I.!.l.j.",
",X,X,X,X4X[.,. .T [ ..[  .=. ...O.5._ 6.0./ H H H H H H H H H H H H H H H H H H H H H H #.y.*.H B f a e   @ G | G 4 q F ^.5X,X,X",
"u.u.5X=X:X&X5.F 0 T [ T o.t.| { E D ~ *.+.~ H H H H H H H H H H H H H H H H H H H H H H _ 1.@.H H f a e   @ 8 q 6 5 9 } |.,X=X=X",
"u.u.5X:X:X5XS.5 5 F F G R 5.5.| U h N J ^ J H H H H H H H P P H H H H H H H H H H H H H H ^ ^ J H m h e   @ 5 w w 9 {  .].4X:X:X",
":X:X,Xf.W.:XB...F 5 G [ G R O...D z l H ^ ^ H H H H H H P P P H H H H H H H H H H H H H H J ( J H M m d   @ V =.=.F G | _.5Xl.l.",
"=X=X,Xu.u.&X8.-...R >.=.[ q R | E j > z z h h h h h n n m m m m m m m m m m m m m n h h n h h h h a a r   @ Q >.=.{ 5 w /.l.l.l.",
":X:X,X5X5X{.4.=. .O.=.O.| 5 9 C T 1 : 1 1 i a a a a a a a a a a a a a a a a a a a a a a a a a a a a a r   $ ..>.O...0 F `.5X5X5X",
"u.u.5X:X:X].4.=.R | O.o.} 5 0 < u i * = e y a a a a a a a s s a a a a a a a a a a a a a a a a a a a f y   * X.,.=.O.G | %X,X=X:X",
"u.u.5X=X:X%X3.T 6 7 ..=.[ 5 0 , a u 2 y a a a a a a a a a a a a a a a a a a a a a a a a a a a a a a a e . @ F | O.O.F  .*X,X=X=X",
",X,X,X5X5X,XM. ...R F G q < : r y r & e e a y e e & # @ # r y y r e & & # & a r r e e & & r r e e e & @ . @ < 9 0 0 6 ..U.,X5X5X",
"=X=X,Xs.g.%Xw.=.>.-...[ q 5 X y a a a a a n f a a y r e e a a a a a a a r e h a a a a y r a a a a a a & . @ < [ [ } ..O.6.*Xl.l.",
":X:X,XW.+X_.-...O.o.o.O.} 9 + y a a a a a h f a a a a a a a a a a a a a a e f a a a a y y a a a a a a &   @ Y =.O.=.=.>.>.%Xl.l.",
"u.u.5X:X,X_.>.O.O.O...=.| w + r a a a a a f f a a a a a y a a a s a a a a r f a a a a y y a a a a a a &   * ..>.>.,.,.o.-.%X:X:X",
"u.u.5X=X:X%X7.=.=.=.O.=.[ q 2 v z g g g g z z z g g p p p p d p g d p p p j z d p p p p t p g d p p p j < 8 ..>.=...{ R 7..X:X=X",
"5X5X5X,X,X5XL.=.o.O...} [  .4.4.,.,.,.,.,.,.,.,.,.,.,.-.=.=.-.-.-.-.-.-.-.-.=.=.=.=.=.=.=.=.-.-.-.-.-.>.,.,.=.=...|  .5.P.:X,X,X",
"=X=X,Xu.k.,X*XY.H.D.S.Z.,...=.>.,.,.,.,.,.,.,.,.>.-.=.=.=.=.=.=.=.>.>.,.4.4.4.4.4.3.3.,.,.>.>.>.>.>.-.=.O.o.O.w.m.K.L.R.*X5Xl.l.",
"=X=X,Xu.i.,X=X:X7X5X5X:XZ.7.e.w.e.B.F.L.U.L.K.J.S.w.=.} { { { [ {  .........| [ } |  .} } O.5.t.v.v.v.8.,.O.O.e.N. X=X%X=X5Xl.l.",
"5X5X,X,X,X,X5X5X,X,X,X5X:X*X*X%X-X<X5X,X,X,X,X*X[.(.)./._.^.R.E.]. X}.}.{.).Y.F.F.U./.`.).[.&X,X<X*X[.(.(.}. X_.(.&X4X5X5X,X,X,X",
"i.u.5X=X=X5Xd.j.:X=X,Xl.l.,X=X:Xl.j.5X%X%X=X&X X`.[.:X3X3X,X:X,X5X8X%X*X*X.X.X%X}.[.&X!.z.,X=X:Xl.8X-X%X&X5Xj.,X=X=X,Xl.l.,X=X=X",
"9Xu.u.u.u.u.p.j.l.l.l.l.l.l.l.l.l.l.l.j.l.@X5X3X3X3X3X3X3X3X3X3X3X3X3X3X3X3X3X3X3X5X@Xl.j.l.l.l.l.l.l.l.l.l.l.l.l.l.l.l.l.l.l.9X",
"9X9Xi.u.u.u.u.a.h.j.l.l.l.l.l.l.l.l.l.l.j.!.5X3X3X3X3X3X3X3X3X3X3X3X3X3X3X3X3X3X3X5X!.j.l.l.l.l.l.l.l.l.l.l.l.l.l.l.l.l.l.l.9X9X"
};
