/* XPM */
static const char *floor[] = {
/* columns rows colors chars-per-pixel */
"64 64 135 2 ",
"   c #9A5D5D",
".  c #9E625F",
"X  c #9D6161",
"o  c #97646A",
"O  c #A16767",
"+  c #A46960",
"@  c #A46D6E",
"#  c #AB7362",
"$  c #B37E64",
"%  c #A36D70",
"&  c #A67171",
"*  c #AD7B7B",
"=  c #BA8666",
"-  c #BC8966",
";  c #C59568",
":  c #CB9D6A",
">  c #CEA16B",
",  c #D3A76C",
"<  c #DDB46E",
"1  c #E3BC70",
"2  c #E7C271",
"3  c #E9C471",
"4  c #EFCD73",
"5  c #F0CD73",
"6  c #F5D474",
"7  c #F7D875",
"8  c #FCDD76",
"9  c #FFE177",
"0  c #FAE07B",
"q  c #8D7384",
"w  c #AC7E83",
"e  c #0593FC",
"r  c #0B95FC",
"t  c #239FFD",
"y  c #2BA1FB",
"u  c #32A2F9",
"i  c #739ACA",
"p  c #45ACFE",
"a  c #4CABF8",
"s  c #54ADF7",
"d  c #4EB0FF",
"f  c #59B0F7",
"g  c #51B1FE",
"h  c #5FB6FF",
"j  c #5FB8FF",
"k  c #6AA7E3",
"l  c #6AA8E3",
"z  c #78BDEA",
"x  c #64B2F6",
"c  c #6CB5F6",
"v  c #6CBAF5",
"b  c #60B7FF",
"n  c #65B9FC",
"m  c #6CBCFD",
"M  c #70B8F6",
"N  c #7FBCF4",
"B  c #77C1FE",
"V  c #7BC2FE",
"C  c #B28384",
"Z  c #B58989",
"A  c #BE9797",
"S  c #BE9798",
"D  c #BE9898",
"F  c #BD9EA8",
"G  c #BFA1AB",
"H  c #C39F9F",
"J  c #CBADAD",
"K  c #CDAFB0",
"L  c #CDB0B0",
"P  c #D3B9B9",
"I  c #AFCCBB",
"U  c #B0CCBB",
"Y  c #DDD894",
"T  c #D1D59E",
"R  c #E5DA8D",
"E  c #F3DE81",
"W  c #CCD3A3",
"Q  c #C5D2A8",
"!  c #84BDF4",
"~  c #C9B4C1",
"^  c #CDBCCA",
"/  c #94C5D2",
"(  c #A2C8C6",
")  c #80C0E3",
"_  c #83C6FD",
"`  c #91C2F3",
"'  c #94CDFC",
"]  c #99CFFC",
"[  c #A7C9F2",
"{  c #A4D3FC",
"}  c #AAD6FC",
"|  c #B7DAF9",
" . c #BADDFB",
".. c #DCC7C8",
"X. c #D4C8D8",
"o. c #E1D1D1",
"O. c #E6DADB",
"+. c #E9DDDE",
"@. c #C9D4EF",
"#. c #DAD2E3",
"$. c #DBD6E8",
"%. c #D4D8EF",
"&. c #DEDBEE",
"*. c #C1DFFB",
"=. c #DFDDF0",
"-. c #E1DDEE",
";. c #EBDFE0",
":. c #E1DFF0",
">. c #C3E0FA",
",. c #CEE5FA",
"<. c #D3E7FA",
"1. c #ECE3E3",
"2. c #F2EBEC",
"3. c #E4ECF7",
"4. c #E3EEF9",
"5. c #EBF1F9",
"6. c #F5F2F4",
"7. c #F8F5F6",
"8. c #F5F5F8",
"9. c #F7F6F8",
"0. c #F3F4F8",
"q. c #F9F7F8",
"w. c #FAF7F8",
"e. c #F9F7F8",
"r. c #F9F8F9",
"t. c #FAF8F8",
"y. c #FBF8F8",
"u. c #FAF8F9",
"i. c #FAF9FA",
"p. c #FBFAFB",
"a. c #FCF8F8",
"s. c #FEF9F8",
"d. c #FBF8F9",
"f. c None",
"g. c black",
/* pixels */
"f.f.r e e e e y g h b b b b b b b b b b h { y.q.q.q.q.q.q.q.q.q.q.q.q.q.q.q.q.q.q.y.{ h b b b b b b b b b b b b b b b b b b f.f.",
"f.e e e e e t h b b b b b b b b b b b h b >.y.q.q.q.q.q.q.q.q.q.q.q.q.q.q.q.q.q.q.y.>.b h b b b b b b b b b b b b b b b b b b f.",
"r e e e e r p h h h h b b b b b b h h n { 0.q.q.q.q.q.q.q.y.y.y.y.y.y.q.q.q.q.q.q.q.0.{ n h h b b b b b b b h h h h b b b b b b ",
"e e e e e r m {  . ._ h b b b b '  . .<.9.q.q.q.q.q.y.y.6.1.o.....o.1.6.y.y.q.q.q.q.q.9.<. . .' b b b b h _  . .{ V b h b b b b ",
"e e e e r M 3.y.a.y.] h b b b h  .a.a.y.q.q.q.q.y.q.1.L C @ X X X X @ C L ;.y.y.q.q.q.q.y.a.a. .h b b b h ] y.a.y.5.} n h b b b ",
"e e e e c &.6.q.q.q.] h b b b h  .a.q.q.q.q.q.y.2.J &                     & J 2.y.q.q.q.q.q.a. .h b b b h ] q.q.q.y.9.} b b b b ",
"e e e y @.-.6.q.q.q.{ h b b b b >.a.q.q.q.q.y.+.Z                             Z +.y.q.q.q.q.a.*.b b b b h { q.q.q.q.q.5.V h b b ",
"e e e x &.-.6.q.q.y.,.n h h h B 4.y.q.q.q.y.O.*         . # - ; ; - # .         * O.y.q.q.q.y.4.B h h h n ,.y.q.q.q.q.y.{ h b b ",
"e e e N -.-.6.q.q.q.9. .B m _ ,.q.q.q.q.y.1.C         $ < 6 8 9 9 8 6 < $         C 1.y.q.q.q.q.,._ m B  .9.q.q.q.q.q.a. .h b b ",
"e e e ! -.&.6.y.q.q.q.q.5.4.0.y.q.q.q.q.7.H       . : 7 9 9 9 9 9 9 9 9 7 : .       H 7.q.q.q.q.y.0.4.5.q.q.q.q.y.q.q.y. .h b b ",
"e e e u s f ' ,.9.q.q.q.q.y.q.q.q.q.q.y.o.O     . > 8 9 9 9 9 9 9 9 9 9 9 8 > .     O o.y.q.q.q.q.q.y.q.q.q.q.9.,.{ ] ] _ b b b ",
"e e e e e r d n  .q.q.q.q.q.q.q.q.q.y.7.A       - 8 9 9 9 9 9 9 9 9 9 9 9 9 8 -       D 7.y.q.q.q.q.q.q.q.q.q. .n h h h h b b b ",
"e e e e e r g h B 5.q.q.q.y.y.6.6.6.6.+.&     + 3 9 9 9 9 9 9 9 9 9 9 9 9 9 9 3 +     & +.6.6.6.6.y.y.q.q.q.5.B h b b b b b b b ",
"e e e e e r g b m 4.y.q.y.6.P Z C C C * X     = 8 9 9 9 9 9 E I I E 9 9 9 9 9 8 =     X * C C C Z P 6.q.q.y.4.m h b b b b b b b ",
"e e e e e r g h _ 0.q.q.y.P X                 , 9 9 9 9 9 E / b b / E 9 9 9 9 9 ,                 X P y.q.q.0._ h b b b b b b b ",
"e e e e e r g B ,.y.q.q.6.Z                 . 2 9 9 9 9 0 ( h b b h ( 0 9 9 9 9 2 .                 Z 6.q.q.y.,.B b h h h b b b ",
"e e e a ! ! | 4.q.q.q.q.6.C       + + + + + $ 6 9 9 9 9 W n h b b b n W 9 9 9 9 6 $ + + + + +       C 6.q.q.q.q.4.>. . .' b b b ",
"e e e ! -.-.6.y.q.q.q.q.6.C     + 1 5 4 5 5 6 9 9 9 9 0 / h b b b b h / 0 9 9 9 9 6 4 5 5 5 1 +     C 6.q.q.q.q.y.a.a.a. .h b b ",
"e e e ! -.-.6.q.q.q.q.q.6.C     + 5 9 9 9 9 9 9 9 9 9 R v h b b b b h v R 9 9 9 9 9 9 9 9 9 5 +     C 6.y.q.q.q.q.q.q.a. .h b b ",
"e e r [ -.-.6.q.q.q.y.7.+.*     + 5 9 9 9 9 9 9 9 9 9 T b b b b b b b b T 9 9 9 9 9 9 9 9 9 5 +     * +.7.y.q.q.q.q.q.y.<.n h b ",
"e r x %.&.-.6.q.y.7.o.A & X     + 5 9 9 9 9 9 9 9 9 9 Q b b b b b b b b Q 9 9 9 9 9 9 9 9 9 5 +       & A o.7.y.q.q.q.q.9.{ b h ",
"x ` %.&.&.-.6.y.1.H O           + 5 9 9 9 9 9 9 9 9 9 W b b b b b b b b W 9 9 9 9 9 9 9 9 9 4 +           O H 1.y.q.q.q.q.0.>.{ ",
"-.-.&.&.&.-.9.O.C             . $ 6 9 9 9 9 0 Y T Y E Y v b b b b b h v Y E Y T Y 0 9 9 9 9 6 $ .             C O.y.q.q.q.q.y.y.",
"&.&.&.&.&.:.O.*         + = , 2 6 9 9 9 9 9 Y v b v ) U z h b b b b h z U ) v b v Y 9 9 9 9 9 6 2 , = +         * +.y.q.q.q.q.q.",
"&.&.&.&.&.#.C       . - 3 8 9 9 9 9 9 9 9 9 T b b h h b n b b b b b b n b h b b n T 9 9 9 9 9 9 9 9 8 3 - .       Z 2.y.q.q.q.q.",
"&.&.&.&.&.F       . > 8 9 9 9 9 9 9 9 9 9 9 Y v h b b b b b b b b b b b b b b b v Y 9 9 9 9 9 9 9 9 9 9 8 > .       J y.q.q.q.q.",
"&.&.&.&.X.%       : 8 9 9 9 9 9 9 9 9 9 9 9 E ) h b b b b b b j b b b b b b b h ) 8 9 9 9 9 9 9 9 9 9 9 9 8 :       & 1.y.q.q.q.",
"&.&.&.=.G       $ 7 9 9 9 9 9 9 9 0 R T Q W Y U b b b b b b x k k x b b b b b b U Y W Q T R 0 9 9 9 9 9 9 9 7 $       L y.q.q.q.",
"&.&.&.$.w     . < 9 9 9 9 9 9 0 W / v b b b v z n b b b b i q o o q i b b b b n z v b b b v / W 0 9 9 9 9 9 9 < .     C 6.q.q.q.",
"&.&.&.X.@     # 6 9 9 9 9 9 E ( n h h b b b h h b b b b i o         o i j b b b h h b b b h h n ( E 9 9 9 9 9 6 #     @ 1.y.q.q.",
"&.&.=.^ X     - 8 9 9 9 9 E / h h b b b b b b b b b b x q             q x b b b b h b b b b b h h / E 9 9 9 9 8 -     X o.y.q.q.",
"&.&.=.~ X     ; 9 9 9 9 9 U b b b b b b b b b b b b j k o             o k j b b b b h h b b b b b b I 9 9 9 9 9 ;     X ..y.q.q.",
"&.&.=.~ X     ; 9 9 9 9 9 U b b b b b b b b b b b b j k o             o k j b b b b b b b b b b b b I 9 9 9 9 9 ;     X ..y.q.q.",
"&.&.=.^ X     - 8 9 9 9 9 E / h h b b b b b b b b b b x q             q x b b b b b b b b b b h h / E 9 9 9 9 8 -     X o.y.q.q.",
"&.&.&.X.@     # 6 9 9 9 9 9 E ( n h h b b b b h b b b j i o         o i j b b b h h b b b h h n ( E 9 9 9 9 9 6 #     @ 1.y.q.q.",
"&.&.&.$.w     . < 9 9 9 9 9 9 0 W / v b b b v z n b b b b i q o o q i b b b b n z v b b b v / W 0 9 9 9 9 9 9 < .     C 6.q.q.q.",
"&.&.&.=.G       $ 7 9 9 9 9 9 9 9 0 R T Q W Y U b b b b b j x k k x b b b b b b U Y W Q T R 0 9 9 9 9 9 9 9 7 $       L y.q.q.q.",
"&.&.&.&.X.%       : 8 9 9 9 9 9 9 9 9 9 9 9 E ! h b b b b b b j b b b b b b b h ) E 9 9 9 9 9 9 9 9 9 9 9 8 :       & 1.y.q.q.q.",
"&.&.&.&.&.F       . > 8 9 9 9 9 9 9 9 9 9 9 Y v h b b b b b b b b b b b b b b h v Y 9 9 9 9 9 9 9 9 9 9 8 > .       J q.q.q.q.q.",
"&.&.&.&.&.#.C       . - 3 8 9 9 9 9 9 9 9 9 T b b h h b n b b b b b b n b h h b n T 9 9 9 9 9 9 9 9 8 3 - .       Z 2.y.q.q.q.q.",
"&.&.&.&.&.:.O.*         + = , 2 6 9 9 9 9 9 Y v b v ) U z h b b b b h z U ! v b v Y 9 9 9 9 9 6 2 , = +         * +.y.q.q.q.q.q.",
"-.-.&.&.&.-.9.O.C             . $ 6 9 9 9 9 0 Y T Y E Y v b b b b h h v Y 8 Y T Y 0 9 9 9 9 6 $ .             C O.y.q.q.q.q.y.y.",
"x ` %.&.&.-.6.y.1.H O           + 5 9 9 9 9 9 9 9 9 9 W b b b b b b b b W 9 9 9 9 9 9 9 9 9 4 +           O H 1.y.q.q.q.q.0.>.{ ",
"e r x %.&.-.6.q.y.7.o.D & X     + 5 9 9 9 9 9 9 9 9 9 Q b b b b b b b b Q 9 9 9 9 9 9 9 9 9 5 +     X & A o.7.y.q.q.q.q.9.{ b h ",
"e e r [ -.-.6.q.q.q.y.7.+.*     + 5 9 9 9 9 9 9 9 9 9 T b b b b b b b b T 9 9 9 9 9 9 9 9 9 5 +     * +.7.y.q.q.q.q.q.y.<.n h b ",
"e e e ! -.-.6.q.q.q.q.q.6.C     + 5 9 9 9 9 9 9 9 9 9 R v h b b b b h v R 9 9 9 9 9 9 9 9 9 5 +     C 6.y.q.q.q.q.q.q.a. .h b b ",
"e e e ! -.-.6.y.q.q.q.q.6.C     + 1 5 4 5 4 6 9 9 9 9 0 / h b b b b h / 0 9 9 9 9 6 4 5 5 5 1 +     C 6.q.q.q.q.y.a.a.a. .h b b ",
"e e e a ! ! | 4.q.q.q.q.6.C       + + + + + $ 6 9 9 9 9 W n h b b h n W 9 9 9 9 6 $ + + + + +       C 6.q.q.q.q.4.*. . .' b b b ",
"e e e e e r g B ,.y.q.q.6.Z                 . 2 9 9 9 9 0 ( h b b h ( 0 9 9 9 9 2 .                 Z 6.q.q.y.,.B b h h h b b b ",
"e e e e e r g h _ 0.q.q.y.P X                 , 9 9 9 9 9 E / b b / E 9 9 9 9 9 ,                 X P y.q.q.0._ h b b b b b b b ",
"e e e e e r g b m 4.y.q.y.6.P Z C C C * X     = 8 9 9 9 9 9 E I U E 9 9 9 9 9 8 =     X * C C C Z P 6.q.q.y.4.m h b b b b b b b ",
"e e e e e r g h B 5.q.q.q.y.y.6.6.6.6.+.&     + 3 9 9 9 9 9 9 9 9 9 9 9 9 9 9 3 +     & +.6.6.6.6.y.q.q.q.q.5.B h b b b b b b b ",
"e e e e e r d n  .q.q.q.q.q.q.q.q.q.y.7.A       - 8 9 9 9 9 9 9 9 9 9 9 9 9 8 -       D 7.y.q.q.q.q.q.q.q.q.q. .n h h h h b b b ",
"e e e u s f ' ,.9.q.q.q.q.y.q.q.q.q.q.y.o.O     . > 8 9 9 9 9 9 9 9 9 9 9 8 > .     O o.y.q.q.q.q.q.y.q.q.q.q.9.,.{ ] ] _ b b b ",
"e e e ! -.&.6.y.q.q.q.q.5.4.0.y.q.q.q.q.7.H       . : 7 9 9 9 9 9 9 9 9 7 : .       H 7.q.q.q.q.y.0.4.5.q.q.q.q.y.q.q.y. .h b b ",
"e e e N -.-.6.q.q.q.9. .B m _ ,.q.q.q.q.y.1.C         $ < 6 8 9 9 8 6 < $         C 1.y.q.q.q.q.<._ m B  .9.q.q.q.q.q.a. .h b b ",
"e e e x &.-.6.q.q.y.,.n h h h B 4.y.q.q.q.y.O.*         . # - ; ; - # .         * O.y.q.q.q.y.4.B h h h n ,.y.q.q.q.q.q.{ h b b ",
"e e e y @.-.6.y.q.q.{ h b b b b >.y.q.q.q.q.y.+.Z                             Z +.y.q.q.q.q.a.>.b b b b h { q.q.q.q.q.5.V h b b ",
"e e e e c &.6.q.q.q.] h b b b h  .a.q.q.q.q.q.y.2.J &                     & J 2.y.q.q.q.q.q.a. .h b b b h ] q.q.q.y.9.} b b b b ",
"e e e e r M 3.y.a.y.] h b b b h  .a.a.y.q.q.q.q.y.y.1.L C @ X X X X @ C L 1.q.y.q.q.q.q.y.a.a. .h b b b h ] y.y.y.5.} n b b b b ",
"e e e e e r m {  . ._ h b b b h '  . .<.9.q.q.q.q.q.y.y.6.1.o.....o.1.6.y.y.q.q.q.q.q.9.<. . .' h b b b h _  . .{ V b h b b b b ",
"r e e e e r p h h h b b b b b b b h h n { 0.q.q.q.q.q.q.q.y.y.y.y.y.y.y.q.q.q.q.q.q.0.{ n h h b b b b b b b h h h h b b b b b b ",
"f.e e e e e t h b b b b b b b b b b b h b >.y.q.q.q.q.q.q.q.q.q.q.q.q.q.q.q.q.q.q.y.>.b h b b b b b b b b b b b b b b b b b b f.",
"f.f.r e e e e y g h b b b b b b b b b b h { y.q.q.q.q.q.q.q.q.q.q.q.q.q.q.q.q.q.q.y.{ h b b b b b b b b b b b b b b b b b b f.f."
};
