/* XPM */
static const char *playersheikh[] = {
/* columns rows colors chars-per-pixel */
"64 64 217 2 ",
"   c #020202",
".  c #080807",
"X  c #0B0B0B",
"o  c #090506",
"O  c #140A0A",
"+  c #131313",
"@  c #1A1916",
"#  c #1C1B1B",
"$  c #191514",
"%  c #101110",
"&  c #280C0D",
"*  c #311011",
"=  c #271918",
"-  c #2B241D",
";  c #1F2121",
":  c #242323",
">  c #2D2C2B",
",  c #362C24",
"<  c #3B3A3A",
"1  c #353433",
"2  c #581517",
"3  c #440F12",
"4  c #72181C",
"5  c #483630",
"6  c #6A2E30",
"7  c #7F1D20",
"8  c #534636",
"9  c #41403D",
"0  c #6E4638",
"q  c #484747",
"w  c #585858",
"e  c #795556",
"r  c #6D584A",
"t  c #7A644B",
"y  c #7C6C56",
"u  c #6A6A6A",
"i  c #666564",
"p  c #777777",
"a  c #796868",
"s  c #8C1A1E",
"d  c #9A1D21",
"f  c #AF1C23",
"g  c #913031",
"h  c #8B2125",
"j  c #B32D31",
"k  c #A9171F",
"l  c #EE161E",
"z  c #D41E25",
"x  c #ED1C24",
"c  c #E41C24",
"v  c #F11C24",
"b  c #D02E34",
"n  c #ED232A",
"m  c #EF2A2D",
"M  c #F32128",
"N  c #EE2C34",
"B  c #E42C33",
"V  c #ED343A",
"C  c #F2393D",
"Z  c #AB433C",
"A  c #AF3D40",
"S  c #E93B42",
"D  c #F03F46",
"F  c #D83E43",
"G  c #9A5D5D",
"H  c #875654",
"J  c #9E625F",
"K  c #967C5D",
"L  c #846D53",
"P  c #9D6161",
"I  c #907968",
"U  c #A46960",
"Y  c #A36969",
"T  c #AB7362",
"R  c #B37E64",
"E  c #A67171",
"W  c #AD7B7B",
"Q  c #AF696C",
"!  c #AE585B",
"~  c #D64B50",
"^  c #F1464A",
"/  c #F2554B",
"(  c #F1545A",
")  c #EC5052",
"_  c #EE6859",
"`  c #C45F63",
"'  c #F35D63",
"]  c #F2686D",
"[  c #F36C71",
"{  c #F37470",
"}  c #CA705E",
"|  c #9A856D",
" . c #AA8C6A",
".. c #BB8866",
"X. c #BB9B74",
"o. c #AA9076",
"O. c #C89969",
"+. c #CD9A77",
"@. c #F7896E",
"#. c #CEA16B",
"$. c #DDB46E",
"%. c #CEA675",
"&. c #E3BC70",
"*. c #E9A67F",
"=. c #EAC772",
"-. c #F0CD73",
";. c #F5D474",
":. c #FCDD76",
">. c #F7D875",
",. c #FFE177",
"<. c #FAE07B",
"1. c #AC7E83",
"2. c #F47C81",
"3. c #0593FC",
"4. c #0B95FC",
"5. c #239FFD",
"6. c #2BA1FB",
"7. c #32A2F9",
"8. c #49ACFB",
"9. c #51B1FE",
"0. c #5FB6FF",
"q. c #59B0F7",
"w. c #51AFFB",
"e. c #60B7FF",
"r. c #65B9FC",
"t. c #6CBCFD",
"y. c #67B4F6",
"u. c #78BAF5",
"i. c #77C1FE",
"p. c #7BC2FE",
"a. c #898887",
"s. c #878787",
"d. c #989897",
"f. c #B28384",
"g. c #B58989",
"h. c #BE9797",
"j. c #BD9EA8",
"k. c #A8A7A6",
"l. c #BAA8A9",
"z. c #B8B8B8",
"x. c #C39F9F",
"c. c #DB8589",
"v. c #F5888C",
"b. c #F6989B",
"n. c #F5958F",
"m. c #DCB689",
"M. c #D1AF85",
"N. c #FBAB85",
"B. c #E6BC8D",
"V. c #F4BA8D",
"C. c #F79DA1",
"Z. c #CDB0B0",
"A. c #D4B8B8",
"S. c #CBADAD",
"D. c #F8A7AA",
"F. c #F7B5B7",
"G. c #F8AFB1",
"H. c #D19FA1",
"J. c #B0CCBB",
"K. c #D7CC9E",
"L. c #F3DE81",
"P. c #EDC293",
"I. c #FCCE9B",
"U. c #F6C998",
"Y. c #FED29E",
"T. c #E5DA8D",
"R. c #FFD6A1",
"E. c #E6CBA3",
"W. c #FEE2B8",
"Q. c #CCD3A3",
"!. c #84BDF4",
"~. c #CBB8C5",
"^. c #94C5D2",
"/. c #A2C8C6",
"(. c #83C6FD",
"). c #99CFFC",
"_. c #93CBFA",
"`. c #A4D3FC",
"'. c #AAD6FC",
"]. c #BADDFB",
"[. c #B7DAF9",
"{. c #A7C9F2",
"}. c #C8C8C6",
"|. c #D7C9C8",
" X c #D8D8D8",
".X c #D4C8D8",
"XX c #FBCED0",
"oX c #E1D1D1",
"OX c #E9DDDE",
"+X c #E6DADB",
"@X c #FCD5D6",
"#X c #F0CECD",
"$X c #FDEED7",
"%X c #FDE6C5",
"&X c #DEDBEE",
"*X c #D7D6EA",
"=X c #DFDDF0",
"-X c #C5DAF5",
";X c #E1DDEE",
":X c #E1DFF0",
">X c #C3E0FA",
",X c #CEE5FA",
"<X c #D3E7FA",
"1X c #ECE3E3",
"2X c #E7E6E6",
"3X c #F7E8E9",
"4X c #F8F3ED",
"5X c #E3EEF9",
"6X c #E4ECF7",
"7X c #EBF1F9",
"8X c #F5F2F4",
"9X c #F9F5F6",
"0X c #F5F5F8",
"qX c #F9F7F8",
"wX c #FBF8F8",
"eX c #FEFBF4",
"rX c None",
/* pixels */
"rXrX4.3.3.3.3.6.9.0.e.e.e.e.e.e.e.e.e.e.0.`.wXqXqXqXqXqXqXqXqXqXqXqXqXqXqXqXqXqXqXwX`.0.e.e.e.e.e.e.e.e.e.e.e.e.e.e.e.e.e.e.rXrX",
"rX3.3.3.3.3.5.0.e.e.e.e.e.e.e.e.e.e.e.0.e.>XwXqXqXqXqXqXqXqXqXqXqXqXqXqXqXqXqXqXqXwX>Xe.0.e.e.e.e.e.e.e.e.e.e.e.e.e.e.e.e.e.e.rX",
"4.3.3.3.3.4.8.0.0.0.0.e.e.e.e.e.e.0.0.r.`.0XqXqXqXqXqXqXqXwXwXwXwXwXwXwXqXqXqXqXqXqX0X`.r.0.0.e.e.e.e.e.e.e.0.0.0.0.e.e.e.e.e.e.",
"3.3.3.3.3.4.t.`.].].(.0.e.e.e.e._.].].<X0XqXqXqXqXqXwXwX8X1X@X|.v.D.C.b.v.XXqXqXqXqXqX0X<X].]._.e.e.e.e.0.(.].].`.p.e.0.e.e.e.e.",
"3.3.3.3.4.u.6XwXwXwX).0.e.e.e.0.].wXwXwXqXqXqXqXwXqX1XZ.f.D.b.] ) S N V ( b.F.wXqXqXqXqXwXwXwX].0.e.e.e.0.).wXwXwX7X'.r.0.e.e.e.",
"3.3.3.3.y.&X8XqXqXqX).0.e.e.e.0.].wXqXqXqXqXqXwX3XS.E F.v.^ n x x x x x x N { D.wXqXqXqXqXqXwX].0.e.e.e.0.).qXqXqXwX0X'.e.e.e.e.",
"3.3.3.6.-X;X8XqXqXqX`.0.e.e.e.e.>XwXqXqXqXqXwXOXg.G D.( n x x x x x x x x x m { G.wXqXqXqXqXwX>Xe.e.e.e.0.`.qXqXqXqXqX7Xp.0.e.e.",
"3.3.3.y.&X;X8XqXqXwX,Xr.0.0.0.i.5XwXqXqXqXwX+XW G D.D n x x x x x x x x c c z b c. XwXqXqXqXwX5Xi.0.0.0.r.,XwXqXqXqXqXwX`.0.e.e.",
"3.3.3.u.;X;X8XqXqXqX0X].i.t.(.,XqXqXqXqXwX1Xf.G F.^ n x x c c c z z f d s 4 2 3 5 d.eXwXqXqXqXqX,X(.t.i.].0XqXqXqXqXqXwX].0.e.e.",
"3.3.3.!.;X&X8XwXqXqXqXqX7X5X0XwXqXqXqXqX9Xx.G |.Y h s 4 4 4 2 3 3 * & O O O o   $ p 4X9XqXqXqXqXwX0X5X7XqXqXqXqXwXqXqXwX].0.e.e.",
"3.3.3.7.w.q._.,X0XqXqXqXqXwXqXqXqXqXqXwXoXY G p = O O O O o o o .   . X O & * 2 7 Q 3XoXwXqXqXqXqXqXwXqXqXqXqX0X,X`.).).(.e.e.e.",
"3.3.3.3.3.4.9.r.].qXqXqXqXqXqXqXqXqXwX9Xh.G k.5 & * 3 3 2 2 6 0 t t L H g k f z c ( XXh.9XwXqXqXqXqXqXqXqXqXqX].r.0.0.0.0.e.e.e.",
"3.3.3.3.3.4.9.0.i.7XqXqXqXwXwX8X8X8X8XOXE 3XH.d d k f j j A } M.B.P.B.+.} _ C M l ^ D.E OX8X8X8X8XwXwXqXqXqX7Xi.0.e.e.e.e.e.e.e.",
"3.3.3.3.3.4.9.e.t.5XwXqXwX8XA.g.f.f.f.W P XXv.v v M C _ } } B.R.R.R.I.X.X.*.@./ V D v.P W f.f.f.g.A.8XqXqXwX5Xt.0.e.e.e.e.e.e.e.",
"3.3.3.3.3.4.9.0.(.0XqXqXwXA.P G G G G G G G.{ x V / @.V.m.X.m.Y.I.Y.I.%.%.U.I.V.{ ^ { G G G G G G P A.wXqXqX0X(.0.e.e.e.e.e.e.e.",
"3.3.3.3.3.4.9.i.,XwXqXqX8Xg.G G G G G G G D.[ m _ V.I.Y.U.B.P.I.P.U.Y.U.U.I.Y.R.N./ [ 4XG G G G G G g.8XqXqXwX,Xi.e.0.0.0.e.e.e.",
"3.3.3.8.!.!.[.5XqXqXqXqX8Xf.G G G U U U U C.] m @.I.Y.Y.Y.Y.Y.Y.I.I.Y.Y.Y.Y.Y.R.N./ ( @XU U U G G G f.8XqXqXqXqX5X>X].]._.e.e.e.",
"3.3.3.!.;X;X8XwXqXqXqXqX8Xf.G G U &.-.-.-.C.] n { I.Y.Y.Y.Y.Y.Y.Y.I.U.U.Y.Y.Y.R.N./ C G.-.-.&.U G G f.8XqXqXqXqXwXwXwXwX].0.e.e.",
"3.3.3.!.;X;X8XqXqXqXqXqX8Xf.G G U -.,.,.,.v.( x / U.Y.Y.Y.Y.P.%.K r r r K M.U.R.N./ N 2.,.,.-.U G G f.8XwXqXqXqXqXqXqXwX].0.e.e.",
"3.3.4.{.;X;X8XqXqXqXwX9XOXW G G U -.,.,.,.b.V x C N.Y.Y.B. .r 5 , , 5 8 8 K B.R.@.C n ( @X,.-.U G G W OX9XwXqXqXqXqXqXwX<Xr.0.e.",
"3.4.y.*X&X;X8XqXwX9XoXh.E P G G U -.,.,.3Xv.n x N { I.U. .L t t L K  . .X.M.M.+._ n x C F.,.-.U G G G E h.oX9XwXqXqXqXqX0X`.e.0.",
"y._.*X&X&X;X8XwX1Xx.Y G G G G G U -.,.,.F.] x x n ^ N.U.M.%.m.B.B.P.B.m.m.X.t Z b x x N v.,.-.U G G G G G Y x.1XwXqXqXqXqX0X>X`.",
";X;X&X&X&X;X0X+Xf.G G G G G G J R ;.,.,.b.) x x x n _ V.B.m.m.M.X. .K L r 8 6 k c x x n ( ,.;.R J G G G G G G f.+XwXqXqXqXqXwXwX",
"&X&X&X&X&X:X+XW G G G G U ..#.=.;.,.,.wXb.V x x x x N n.o.y r r 8 5 , = # 5 j c x x x x V D.,.;.=.#...U G G G G W OXwXqXqXqXqXqX",
"&X&X&X&X&X*Xf.G G G J ..=.:.,.,.,.,.,.3X2.n x x x x x { I q > - 5 8 8 8 9 H F v x x x x x ] ,.,.,.,.:.=...J G G G g.3XwXqXqXqXqX",
"&X&X&X&X&Xj.G G G J #.:.,.,.,.,.,.,.,.XX] x x x x x x b 6 q i | X.X.K 8 + e b v x x x x x V G.,.,.,.,.,.:.#.J G G G S.wXqXqXqXqX",
"&X&X&X&X.XE G G G O.:.,.,.,.,.,.,.,.,.F.' x x x x x x x h & % - , - % .   6 b v x x x x x x [ XX,.,.,.,.,.:.O.G G G E 1XwXqXqXqX",
"&X&X&X=Xl.G G G R >.,.,.,.,.,.,.,.<.T.D.( x x x x x x x z 2 .           X g B x x x x x x x N v.@XwX,.,.,.,.>.R G G G Z.wXqXqXqX",
"&X&X&X*X1.G G J $.,.,.,.,.,.,.<.Q.^.y.G.( l x x x x x x n h &           = j n x x x x x x x x V v.@X,.,.,.,.,.$.J G G f.8XqXqXqX",
"&X&X&X.XE G G T ;.,.,.,.,.,.L./.r.0.0.@X] x x x x x x x v z 2         . 6 b v x x x x x x x x l [ XX,.,.,.,.,.;.T G G E 1XwXqXqX",
"&X&X=X~.P G G ..:.,.,.,.,.L.^.0.0.e.e.e.v.^ x x x x x x x B g = X X   X e ~ C M x x x x x x x C b.3XL.,.,.,.,.:...G G P oXwXqXqX",
"&X&X=X~.P G G O.,.,.,.,.,.J.e.e.e.e.e.e.e.v.' C M v x x x M j 5 @ #   X < H ! ~ S N M M v M B ` oXwXJ.,.,.,.,.,.O.G G P |.wXqXqX",
"&X&X=X~.P G G O.,.,.,.,.,.J.e.e.e.e.e.e.e.3XA.` ~ S N n x v b 6 ; :   X X @ < e ! ` ~ S V ~ A e k.4XJ.,.,.,.,.,.O.G G P |.wXqXqX",
"&X&X=X~.P G G ..:.,.,.,.,.L.^.0.0.e.e.e.e.}.a.< e Y ` ~ V N b 6 % : X @ @       ; q e H H e , + w k.L.,.,.,.,.:...G G P oXwXqXqX",
"&X&X&X.XE G G T ;.,.,.,.,.,.L./.r.0.0.e.e.s.q   o @ q a Y Q H = X ; X . .             X X       + u  X,.,.,.,.;.T G G E 1XwXqXqX",
"&X&X&X*X1.G G J $.,.,.,.,.,.,.<.Q.^.y.e. Xp @         X $ # %   X @ +                 @ X         : s.2X,.,.,.$.J G G f.8XqXqXqX",
"&X&X&X=Xl.G G G R >.,.,.,.,.,.,.,.<.T.Q.a.q                     X # X   + X         X > :           < k.,.,.>.R G G G Z.wXqXqXqX",
"&X&X&X&X.XE G G G O.:.,.,.,.,.,.,.,.,. Xi @                     % :   X # : +       X 1 q X         @ u 2X:.O.G G G E 1XwXqXqXqX",
"&X&X&X&X&Xj.G G G J #.:.,.,.,.,.,.,.wXk.<                       @ :   X # # : @       : u @           1 z.#.J G G G S.qXqXqXqXqX",
"&X&X&X&X&X*Xf.G G G J ..=.:.,.,.,.,.2Xi X                     . @ @     X X @ # +     $ p 1           : k.J G G G g.3XwXqXqXqXqX",
"&X&X&X&X&X:X+XW G G G G U ..#.=.;.,.k.1                         @ @           + @ +   % p i @       + q z.G G G W OXwXqXqXqXqXqX",
";X;X&X&X&X;X0X+Xf.G G G G G G J R ;.a.< .                     X @ +             + @ X X u d.>     @ r l.G G G f.+XwXqXqXqXqXwXwX",
"y._.*X&X&X;X8XwX1Xx.Y G G G G G U -.|.o.8 $     .               @ @     X         X @ + q k.q   - L K.%XeXY x.1XwXqXqXqXqX0X>X`.",
"3.4.y.*X&X;X8XqXwX9XoXh.E P G G U -.4X%Xm.y - X @               + #     @ @         X : < z.u 1 I E.W.$XeXoX9XwXqXqXqXqX0X`.e.0.",
"3.3.4.{.;X;X8XqXqXqXwX9XOXW G G U -.eX$XW.E.| w i X             + : X   X X           + 1 z.z.z.oX$X$XOX9XwXqXqXqXqXqXwX<Xr.0.e.",
"3.3.3.!.;X;X8XqXqXqXqXqX8Xf.G G U -.,.eX$X$X$X}.s.              X # @                   @ k.-.U G G f.8XwXqXqXqXqXqXqXwX].0.e.e.",
"3.3.3.!.;X;X8XwXqXqXqXqX8Xf.G G U &.-.-.-.-.;.,.a.                + :                   . a.&.U G G f.8XqXqXqXqXwXwXwXwX].0.e.e.",
"3.3.3.8.!.!.[.5XqXqXqXqX8Xf.G G G U U U U U R ;.s.                X : %                   p U G G G f.8XqXqXqXqX5X>X].]._.e.e.e.",
"3.3.3.3.3.4.9.i.,XwXqXqX8Xg.G G G G G G G G J =.p                   # @ + X               w G G G G g.8XqXqXwX,Xi.e.0.0.0.e.e.e.",
"3.3.3.3.3.4.9.0.(.0XqXqXwXA.P G G G G G G G G #.u                   # + @ @               q l.G G P A.wXqXqX0X(.0.e.e.e.e.e.e.e.",
"3.3.3.3.3.4.9.e.t.5XwXqXwX8XA.g.f.f.f.W P G G ..w                 X : X X X               1 }.f.g.A.8XqXqXwX5Xt.0.e.e.e.e.e.e.e.",
"3.3.3.3.3.4.9.0.i.7XqXqXqXwXwX8X8X8X8XOXE G G |.q                 @ #                     > z.8X8XwXqXqXqXqX7Xi.0.e.e.e.e.e.e.e.",
"3.3.3.3.3.4.9.r.].qXqXqXqXqXqXqXqXqXwX9Xh.G G }.>               X @ +                     @ z.qXqXqXqXqXqXqXqX].r.0.0.0.0.e.e.e.",
"3.3.3.7.w.q._.,X0XqXqXqXqXwXqXqXqXqXqXwXoXY G z.:                 @ +                     X d.wXqXqXwXqXqXqXqX0X,X`.).).(.e.e.e.",
"3.3.3.!.;X&X8XwXqXqXqXqX7X5X0XwXqXqXqXqX9Xx.G k.@                 @ #   . X                 s.qXwX0X5X7XqXqXqXqXwXqXqXwX].0.e.e.",
"3.3.3.u.;X;X8XqXqXqX0X].i.t.(.,XqXqXqXqXwX1Xf.d.X                 + @   X # X               u qX<X(.t.i.].0XqXqXqXqXqXwX].0.e.e.",
"3.3.3.y.&X;X8XqXqXwX,Xr.0.0.0.i.5XwXqXqXqXwX+Xa..                   X     + X               q 5Xi.0.0.0.r.,XwXqXqXqXqXqX`.0.e.e.",
"3.3.3.6.-X;X8XwXqXqX`.0.e.e.e.e.>XwXqXqXqXqXwXp                                             q >Xe.e.e.e.0.`.qXqXqXqXqX7Xp.0.e.e.",
"3.3.3.3.y.&X8XqXqXqX).0.e.e.e.0.].wXqXqXqXqXqXa.# X                           X X + # > < q a.].0.e.e.e.0.).qXqXqXwX0X'.e.e.e.e.",
"3.3.3.3.4.u.6XwXwXwX).0.e.e.e.0.].wXwXwXqXqXqX}.a.i < @ X X X X X X + + X X X + @ < u p a.z.2X].0.e.e.e.0.).wXwXwX7X'.r.e.e.e.e.",
"3.3.3.3.3.4.t.`.].].(.0.e.e.e.0._.].].<X0XqXqXqXeX2Xk.> X + + X @ < i i : X     X q d.0X<X].]._.0.e.e.e.0.(.].].`.p.e.0.e.e.e.e.",
"4.3.3.3.3.4.8.0.0.0.e.e.e.e.e.e.e.0.0.r.`.0XqXqXqXqXp @         > d.2X Xw @         < z.r.0.0.e.e.e.e.e.e.e.0.0.0.0.e.e.e.e.e.e.",
"rX3.3.3.3.3.5.0.e.e.e.e.e.e.e.e.e.e.e.0.e.>XwXqXqX2Xq X       > d.2XqXqX}.p : X     > d.0.e.e.e.e.e.e.e.e.e.e.e.e.e.e.e.e.e.e.rX",
"rXrX4.3.3.3.3.6.9.0.e.e.e.e.e.e.e.e.e.e.0.`.wXqXqX2Xu @ X # w k.2XqXqXqXqX Xz.d.p a.k.2Xe.e.e.e.e.e.e.e.e.e.e.e.e.e.e.e.e.e.rXrX"
};
