/* XPM */
static const char *wall[] = {
/* columns rows colors chars-per-pixel */
"64 62 208 2 ",
"   c #2F2E1A",
".  c #34341E",
"X  c #423E27",
"o  c #3B4423",
"O  c #3F4529",
"+  c #3F5327",
"@  c #434E26",
"#  c #48442B",
"$  c #4D482E",
"%  c #44462B",
"&  c #524A2D",
"*  c #435126",
"=  c #465529",
"-  c #49542C",
";  c #475E28",
":  c #4C5C2C",
">  c #4A4933",
",  c #524D35",
"<  c #544F39",
"1  c #4D5334",
"2  c #4E5A31",
"3  c #515431",
"4  c #5B5335",
"5  c #525E32",
"6  c #53543B",
"7  c #545C39",
"8  c #5A5B3D",
"9  c #5C563B",
"0  c #62593A",
"q  c #4F612D",
"w  c #54652F",
"e  c #4B6335",
"r  c #546331",
"t  c #586736",
"y  c #556A31",
"u  c #5C6D35",
"i  c #5A643C",
"p  c #5C6B3B",
"a  c #5D733C",
"s  c #597034",
"d  c #606D3C",
"f  c #62743A",
"g  c #6A7D39",
"h  c #565440",
"j  c #595643",
"k  c #5D5C43",
"l  c #5E5D4E",
"z  c #645D46",
"x  c #645D4A",
"c  c #685D41",
"v  c #615F50",
"b  c #5C6E42",
"n  c #5A6442",
"m  c #616444",
"M  c #636C42",
"N  c #64654B",
"B  c #6A634C",
"V  c #6C6C4A",
"C  c #656C48",
"Z  c #71664D",
"A  c #756A4E",
"S  c #657243",
"D  c #6A7B42",
"F  c #6D734D",
"G  c #6C7648",
"H  c #717C4A",
"J  c #747848",
"K  c #636354",
"L  c #6C6553",
"P  c #626955",
"I  c #6E6C54",
"U  c #6B695A",
"Y  c #696859",
"T  c #726B54",
"R  c #746B5A",
"E  c #796E5C",
"W  c #706651",
"Q  c #6D7252",
"!  c #6C7859",
"~  c #747554",
"^  c #747C55",
"/  c #797F55",
"(  c #75735A",
")  c #7B735E",
"_  c #757A59",
"`  c #787B5B",
"'  c #706E60",
"]  c #796E61",
"[  c #757361",
"{  c #7B7362",
"}  c #7E7A65",
"|  c #7E776B",
" . c #7E7A69",
".. c #767C62",
"X. c #81765E",
"o. c #817665",
"O. c #847A66",
"+. c #81766C",
"@. c #857A6D",
"#. c #897E6C",
"$. c #887F64",
"%. c #807770",
"&. c #867C73",
"*. c #897E74",
"=. c #867F78",
"-. c #887F78",
";. c #6D8147",
":. c #738545",
">. c #7B8B4C",
",. c #75814F",
"<. c #7A9347",
"1. c #7A8C51",
"2. c #7B815A",
"3. c #7E8751",
"4. c #7C8463",
"5. c #778763",
"6. c #818E4F",
"7. c #83994D",
"8. c #828B56",
"9. c #808559",
"0. c #838A59",
"q. c #8B8F5E",
"w. c #849452",
"e. c #86925B",
"r. c #899758",
"t. c #8DA84E",
"y. c #8A8266",
"u. c #838269",
"i. c #8A816D",
"p. c #838868",
"a. c #869569",
"s. c #88936C",
"d. c #8C9D6D",
"f. c #878074",
"g. c #8C8275",
"h. c #8D847B",
"j. c #8F887E",
"k. c #918575",
"l. c #938973",
"z. c #91867C",
"x. c #93897D",
"c. c #998D7E",
"v. c #998C77",
"b. c #9B947C",
"n. c #979777",
"m. c #A59A7F",
"M. c #94A571",
"N. c #9CAC74",
"B. c #9FB176",
"V. c #B9AD79",
"C. c #A0B178",
"Z. c #8F8680",
"A. c #8E8981",
"S. c #948C83",
"D. c #998E83",
"F. c #928F88",
"G. c #968B84",
"H. c #969086",
"J. c #9E9285",
"K. c #9B9285",
"L. c #9F9887",
"P. c #96928A",
"I. c #9D9489",
"U. c #9B958B",
"Y. c #9E988E",
"T. c #9E9A91",
"R. c #9A9690",
"E. c #A19586",
"W. c #A39A85",
"Q. c #A1978A",
"!. c #A1968B",
"~. c #A29A8E",
"^. c #A99D8E",
"/. c #A89F86",
"(. c #A39D92",
"). c #A99E93",
"_. c #ACA18E",
"`. c #B6AB82",
"'. c #B3A88B",
"]. c #A6A196",
"[. c #AAA295",
"{. c #A6A299",
"}. c #ABA59A",
"|. c #AEA99E",
" X c #B1A795",
".X c #B1A997",
"XX c #B8AE97",
"oX c #B1A699",
"OX c #B2AB9D",
"+X c #B9AF9B",
"@X c #BDB39B",
"#X c #BAB098",
"$X c #AEABA1",
"%X c #B3ADA2",
"&X c #B7B1A5",
"*X c #BAB3A5",
"=X c #B7B2A8",
"-X c #BBB5A9",
";X c #BFB8AC",
":X c #BFB9A4",
">X c #C0BB9B",
",X c #C0B7A6",
"<X c #C2BAAC",
"1X c #C7BEA7",
"2X c #C5BEB1",
"3X c #CAC29C",
"4X c #CCC3A9",
"5X c #CBC4B6",
/* pixels */
"s.4.P K R U ' I { v l Y Y Y U { h.f.[ { } { } } R U Y ! ..s.5.5.a.N.M.d.d.N.M.N.C.a.4.p.4.d.s.d.N.C.M.M.d.d.a.! P K Y Y K l U K ",
"p w @ X J B z c A z k z x ) Z E ) X.O.O.O.T ) ) R x L [ } ` Q n S 8.H H S 3.0.9./ ` 4._ _ F 2.e.e.r.>.;.1.w.w.p e t C 6 > < x , ",
"p u - > y.O.O.R R @.R R ) O.) @.{ g.k.J.D.+.x.!.@.R O.g.c.x.+.R [ ) O.O.R E E +.g.I.I.#.R { x.g.@.g.f.f.H.x.l.)  .( ) y.>XW.{ T ",
"2 p - j *.+.k.x.#.+.&.g.S.+.*.*.g.b.G.I.H.D.<X].g.&.&.h.D.x.g.K.z.&.g.o.g.*.z.S.S.D.D.*.@.*.g.z.D.^.!.~.oXH.l.&.g.o.i.i.b.c.g.( ",
"7 ~ ~ c.D.g.c.J.z.*.h.D.x.*.z.h.v.V.K.z.*.G.D.*.h.z.S.I.h.&.I.I.!.J.h.S.g.g.h.g.h.&.*.&.*.z.g.x.E.J.D.!.^.D.).D.*.h.I.S.*.x.o.R ",
"# #.x.!.^.[.).oXK.h.&.j.x.x.h.S.S.c.).x.x.D.z.g.~.z.S.z.j.K.~.&.h.K.j.(.~.(.h.G.g.&.&.z.j.g.S.x.S.z.h.x.S.D.oXD.%.h.I.z.x.D.{ W ",
"& #.D.S.S.z.(.-X!.z.-.j.h.J.!.oXS.*.S.S.S.G.D.h.I.K.j.-.D.K.D.h.D.I.D.}.5X|.(.K.&.*.&.h.*.&.h.g.@.z.!.x.D.c.).!.+.*.I.z.I.h.) I ",
"& o.*.z.K.!.g.x.D.*.z.h.S.!.(.!.j.z.x.S.j.K.T.Z.j.D.S.S.F.}.{.S.!.).h.%X5XD.I.z.h.*.@.+.&.&.&.@.+.z.S.*.z.*.z.g.+.z.D.x.z.x.l.y.",
"$ R { ).}.}.K.I.x.z.x.j.F.).(.(.z.x.!.I.D.U.(.D.A.F.x.D.F.{.$XK.g.Z.h.D.(.F.D.h.S.h.D.x.h.D.z.j.h.j.z.&.*.*.+.&.*.J.!.&.g.g.g.) ",
"7 Q L D.K.I.).I.S.h.J.D.z.I.I.S.%.&.h.j.U.S.S.I.F.F.h.S.j.(.I.j.j.h.j.G.).].(.z.S.S.(.(.j.x.K.H.S.h.h.h.h.&.g.I.&.D.!.&.h.z.{ B ",
"5 O > m h +.oX}.z.&.z.^.1X^.h.&.f.f.h.h.H.j.Z.x.D.F.h.h.h.F.(.h.I.^.~.}.%X=X(.S.S.j.j.I.Z.I.|.K.&.j.Z.j.S.&.h.D.&.g.z.%.h.z.@.K ",
"* * : 5 1 L !.(.h.&.S.oX5X+Xg.h.D.F.H.f.Q.K.U.h.Z.Z.Z.U.K.x.H.Z.S.H.(.(.}.}.S.j.Z.Z.F.I.I.I.).S.z.S.S.h.j.h.j.I.(.S.S.*.x.*.g.N ",
"- = 5 : - x K.D.&.*.G.D.D.S.I.(.F.j.(.H.G.J.U.D.j.&.j.D.x.j.H.I.G.).[.U.}.U.P.T.U.Z.(.].OXOX(.H.D.(.~.I.I.S.S.(.%X~.~.I.x.+.] B ",
"; - w d 2 j g.*.&.z.OX].S.S.U.(.K.K.(.}.G.D.S.).I.x.S.S.g.H.U.Y.U.Y.I.I.}.(.U.T.Y.H.{.).}.=X{.H.Z.D.D.).!.h.h.S.I.).).z.z.D.#.N ",
"= w u f r i I +.&.S.%X(.S.).(.D.K.].|.I.H.D.H.~.U.H.A.H.K.I.U.H.H.S.K.~.-X].U.Z.S.(.-X].(.(.S.S.S.h.-.h.j.+.&.*.h.K.(.D.j.h.@.I ",
"= q r w S k | j.h.I.K.H.D.D.K.(.(.T.(.H.j.S.].[.(.H.S.~.(.U.F.S.H.D.K.K.[.(.U.H.OX*X(.).(.K.D.S.S.h.j.&.x.K.S.D.-.z.S.K.h.+.g.~ ",
": D t r p h h.S.j.x.j.G. X_.j.D.U.H.K.~.K.Y.OX}.}.T.H.].|.{.S.Y.(.H.F.h.H.H.H.(.(.(.}.}.(.I.(.S.I.(.K.F.D.D.G.I.*.S.z.(.D.h.#.q.",
"q y d _ O.| c.K.K.h.h.J.4XXXG.(.U.S.Q.].I.(.%X}.].T.I.}.(.I.~.H.U.G.H.G.S.P.D.(.T.H.}.{.(.].=XI.G.(.|.(.I.D.).~.*.z.x.z.D.h.o.8.",
"@ w 3 R S.z.S.H.I.z.D.#XXXD.}.}.{.(.OX%X].T.T.%X&X(.(.%X].).OX(.S.H.H.T.K.F.H.Y.D.U.I.(.I.].|.}.(.|.|.).D.(.].x.D.S.h.&.S.H.{ D ",
"* f M L *.Z.z.h.&.D.(.).K.).{.(.%X(.).{.Y.].R.}.].F.T.%X%X&X}.Q.H.R.R.U.K.D.U.U.I.}.].T.R.U.G.(.%X].K.K.S.(.].!.I.K.K.I.h.x.{ b ",
"i 8.~ @.h.S.x.h.x.G.S.I.j.].%X}.].T.T.F.Y.~.H.R.(.H.(.&X$X{.}.h.j.K.(.H.z.K.).(.{.%X|.%XT.T.I.|.%XI.(.I.U.).}.).F.&.z.S.g.G.E ,.",
"D H H ( u.) I.].!.D.h.I.U.}.%XS.K.Y.P.K.Y.(.U.}.T.P.U.}.(.F.(.S.].&X<XU.U.U.K.Y.T.-X%X-X}.H.S.].%XY.K.OX}.I.j.&.h.&.&.+.&.h.o.2.",
"f r D S t I }.}.I.Z.Z.Y.(.K.(.U.(.(.T.H.P.(.U.U.T.H.H.H.U.U.Y.[.%X|.&X(.U.F.j.(.U.).].].(.Y.S.S.).).Q.-X%XK.S.S.Z.@.z.S.g.*.#.^ ",
"d = w f p  .).{.K.F.F.Z.F.D.(.D.}.{.U.).(.%XY.F.T.U.U.T.L.@XY.P.H.}.T.P.(.H.H.U.F.K.(.H.K.}.I.U.K.].}.].].D.J.!.(.S.!.!.h.*.#.^ ",
"u : w p M #.!.(.H.S.K.Z.Z.~.].K.].].(.|.;X%X].T.T.Y.&X2XOX].H.H.U.Y.P.(.(.(.(.Y.Z.D.(.Y.K.].U.{.U.|.OXOX).G.x.x.z.S.x.I.*.g.#.^ ",
"q = f >.9.{ ~.I.x.x.S.F.H.}.(.F.U.T.H.U.U.Z.H.U.T.T.}.OXJ.H.T.Y.Y.Y.Y.|.$X;X].U.K.).}.H.U.].D.K.|.{.].oXE.D.|.K.H.D.g.x.D.x.l.Q ",
"q ; u D V g.D.K.K.h.h.F.U.(.T.F.F.U.I.G.K.P.H.T.OX(.U.].J.U.T.).(.~.(.Y.].].U.S.U.).K.U.U.(.H.{.%X}.%XOXD.x.-X~.H.Z.&.x.!.h.{ I ",
"* o 8 O.z.(.j.K.K.Z.f.D.~.{.I.Y.].(.|.].S.S.P.R.$X{.).OX|.|.OX}.~.=X-XT.x.Y.%Xx.h.}.~.U.F.U.U.|.*XOX*X<X}.H.T.I.].G.*.z.h.@.L k ",
"* 1 +.J.I.R.A.D.S.H.S.H.I.|.h.c.Y.|.OX*XU.U.H.H.&X}.(.U.%X}.%X|.|.2X5X}.Y.(.}.^.U.}.Y.h.D.{.Y.}.OX%XOX,X}.).K.K.}.~.o.&.h.z.{ 6 ",
"y F @.J.z.S.h.G.I.].K.H.T.{.F.T.(.T.OX:X*X(.I.(.].T.R.H.(.(.{.&X*X*X,XOX|.(.(.Y.K.Y.Y.(.~.|.(.~.].%X}.}.K.~.Y.(.%X(.*.&.].^.f.6 ",
"+ M R g.h.G.(.^.E.Y.^.).E.(.U.{.U.(.|.*X*X}.Y.(.}.T.T.].{.U.(.}.T.(.|.{.(.(.}.U.I.Y.T.{.~.E.G.&X%X].(.(.{.H.OX}.S.j.f.h.K.k.z.S ",
"= 8 T v.+.h.~.H.K.D.K.OXoXOXT.%X^.P.R.}.].}.=X{.%X}.T.}.}.%X|.$X].}.%XU.U.(.(.K.I.].;X}.I.Y.x.H.].I.U.I.}.].}.}.K.S.h.K.H.g.i.b ",
"f i R g.h.D.I.K.D.U.~.}.%XOXY.(.~.P.}.].T.(.-X&X%X%XY.K.].].Y.}.-X;X&X].(.Y.~.).].OXOXI.~.Y.).K.I.).-X'.[.K.].[.^.I.].H.K.K.{ S ",
"<.8 ) J.}.Q.K.).I.I.|.$X=X}.U.(.I.H.T.U.(.Y.I.%X}.}.).G.}.S.Y.].;X;X-XOXT.T.T.&X&X%X}.~.[.|.-X{.(.2X;XE.E.^.%XK.x.F.H.S.I.L.O.w.",
"t.^ +.~.}.J.S.(.).~.(.|.|.}.|.|.{.I.Y.}.=X(.(.].|.=X(.S.Y.(.{.T.T.%X<X~.T.{.).}.-X=X}.H.(.{.(.).).%XOX~.K.%XQ.H.S.j.h.x.!.c.$.w.",
"t.2.o.S.).~.I.I.I.].Y.Y.K.~.-X|.%X%XOX-X;X}.|.(.}.[.Y.(.OX}.%X(.%X=X}.}.{.].].(.|.}.Y.~.Y.U.U.}.].U.).~.I.(.G.S.S.K.S.!.^.W.b.1.",
"7.~ { x.c.S.S.j.K.U.U.~.~.G.%X%XOX%X&X2X-X%X}.{.T.Y.[.Y.].}.|.].|.T.T.~.}.}.).I.~.U.T.}.OXY.).).K.S.~.~.I..XQ.U.~.(.).~.^.c.g.a ",
"7.F ] h.g.g.z.h.x.U.U.I.K.Y.~.|.{.T.].%X%X;X%X(.H.Y.|.H.(.T.Y.(.(.U.U.U.].$X$X%X%X~.}.~.].}.=Xx.x.U.{.].(.K.I.|.I.D.I.}.K.@.T :.",
"<.2.#.x.g.@.h.(.).}.[.{.K.K.}.(.Y.{.{.&X-X<X&XT.OX:X{.Y.|.].Y.Y.Y.T.Y.I.I.T.{.|.].}.-X}.I.^.-X).G.S.).|.{.(.K.(.K.S.~.~.h.o.( f ",
"s ( #.J.x.x.x.].|.OX^.U.H.H.(.].~.OX|.|.%X-X;X].<X-X[.(.-X].(.Y.).{.U.H.U..X*X}.).%X~.(.G.J.=X%XS.h.}.(.(.~.(.).E.x.K.h.g.o.) a ",
"a I +.*.z.*.D.].].(.D.F.U.J.Z.U.c.Y.H.T.U.U.U.H.T.&XG.H.}.=X;X=XOX|.).Y.I.}.=X].].$X|.).).J.{.U.F.I.%XOXH.{.%X{.G.).].h.*.@.T p ",
"7 L o.*.x.&.~.OXK.G.F.Z.Z.G.h.).x.P.Y.U.(.K.U.P.H.=X].}.].].{.|.}.^.(.].[.].|.Y.].T.Y.(.(.I.~.H.(.(.%X%X~.}.}.).~.OXoXQ.x.z.T M ",
"% x O.x.K.z.J.I.S.D.F.S.K.[.'.].S.F.P.U.Y.Y.(.S.Y.}.T.(.~.}.].).].(.~.|.;X2X|.U.T.(.K.I.(.(.].(.j.H.|.~.J.].].(.~.OXOX^.E.K.W 3 ",
"# B E *.g.K.g.g.z.j.G.+.K.*X^.Y.U.P.F.K.).(.).U.(.|.(.U.D.}.OX}.&X].~.&X=X%X(.~..XK.~.].|.T.].z.g.Y.|.I.].|.(.K.K.^.I.I.j.#.) V ",
"z $.#.*.h.*.g.h.j.S.S.x.(.~.K.~.Q.(.H.Y.Y.{.U.%XOXOXI.S.F.].}.].%X(.J.}.2X%X%X@X3X[.{.^.|.(.x.h.S.(.~.j.K.D.x.g.J.D.G.S.x.@.R n ",
", ) g.&.z.&.&.&.U.S.K.].|.|.~.I.K.I.].|.T.U.Y..X*X}.}.{.T.}.$X%X}.K.~.Y.}.|.%XOX+X(.%X|.(.{.(.!.).(.~.D.S.G.!.~.^.!.G.*.z.+.L 6 ",
"k W { x.x.g.g.@.g.~.^.].OX].S.K.I.D.K.G.].Y.T.Y.[.).}.}.(.%X(.T.}.).K.K.].(.(.(.].(.<XOXY.~.j.D.I.K.}.~.~.c.~.).~.~.).D.*.@.R B ",
", L i.^.E.x.K.&.z.^.K.K.(.H.Z.j.H.I.I.I.[.~.F.(.].].OX].Y.{.|.].].].I.].|.(.I.J.K.].}.~.H.Y.(.~.Y.D.Y.K.z.x.}.(.S.D.^.K.x.i.L $ ",
"  L z.!.~.~.S.S.z.z.^.x.H.S.S.D.K.H.T.H.T.[.}.(.U.U.}.OXI.).{.}.}.T.U.}.|.{.U.S.U.).S.S.Z.U.!.K.h.j.K.x.g.x.).K.h.z.E.@.k.@.R 0 ",
". L @.E.~.}.x.*.x.D.XXQ.(.~.~.D.I.|.H.Z.H.(.].(.).}.OX|.[.{.U.%XOX{.~.).].Y.K.(.S.&.h.G.S.H.D.F.j.S.j.D.x.z.j.g.x.z.S.@.g.g.W 4 ",
"& Z R G.I.I.x.*.x.x.D.z.].).~.H.D.}.).H.H.{.{.~.~._.`.(.%X}.Y.).K.}.(.I.^.U.).|.U.(.K.~.{.(.F.j.S.S.D.j.*.S.j.z.&.h.h.h.&.] R B ",
"& Z E x.h.g.z.G.S.D.K.z.K.Q.z.G.^.|.I.H.).}.(.U.{.}.Q.{.;X|.J.I.D.H.}.}.(.I.G.G.h.I.D.D.(.%XY.h.S.x.S.j.&.j.D.S.@.@.g.K.z.g.z.T ",
"> B E K.D.&.z.z.~.~.E.z.S.x.G.~.~.Y.x.S.U.=X^.).).}.}.(.%X{.^.J.T.{.$X].I.K.Y.G.G.I.G.F.K.}.=XI.S.J.h.&.x.D.z.*.x.x.z.g.z.oX}.W ",
"# { #.}.c.&.*.g.I.!.!.J.S.*.D.oXJ.x.x.(.K.(.G.I.D.j.H.S.Y.(.I.).).(.|.].].}.).H.Y.}.Y.U.H.K.I.G.S.h.g.*.S.}.D.| h.J.c.z.z.#.R 9 ",
". L #.K.D.k.g.&.z.!.!.}.!.U.z.K.J.I.^.OXJ.F.H.Y.j.A.P.H.[.4XOXU.S.U.~.(.(.}.K.j.I.).I.h.~.).x.&.g.@.#.*.x.}.!.~.[.oXQ.D.K.l.) 4 ",
". x o.x.h.h.&.+.+.K.D.K.~.(.h.h.x.K.(.OXK.j.U.].S.H.T.Z.U.I.U.U.F.F.D.U.Z.S.K.Y.G.G.D.G.~.).h.&.h.x.k.D.J.(.K.I.G.z.g.D.h.k.O.B ",
"% I k.g.&.+.+.z.x.x.Z.h.D.h.h.x.K.~.I.}.D.h.S.oXI.J.~.S.F.z.&.K.I.H.H.I.K.j.D.U.c.D.D.(.(.~.D.z.z.x.*.!.~.D.I.J.g.x.D.g.h.h.{ 0 ",
"@ B E x.g.x.h.oX[.(.h.&.*.*.g.`.'.~.~.I.&.h.&.h.h.z.x.S.S.K.J.).x.'.[.}.I.S.j.Z.S.!.Y.).}.~.*.z.x.*.*.h.S.S.~.).~.J.*.*.h.H.O.< ",
": 8 R !.J.x.&.D.K.).h.&.&.@.x.XXH.K.!.D.x.h.j.x.g.h.h.S.U.).{.K.x.L.D.!.E.&.h.j.K.}.D.G.(.K.&.z.x.&.D.K.D.I.!.~.}.~.D.&.+.@.{ x ",
"u k R h.&.o.*.h.g.z.h.-.&.&.h.^.E.).(.K.g.H.L.f.g.h.h.x.K.g.h.I.G.&.S.c.H.h.j.&.j.).I.}.[.D.&.z.x.z.oX_.J.J.~.~.(.).}.c.+.+.+.{ ",
"g m R &.&.@.*.*.z.J.h.j.h.*.S.~.E.n.p.u.F Q 0.M L g.g.j.j.h.h.h.&.&.D.K.k.h.h.&.z.D.J.).^.[.D.z.S.!.oXb.~ j g.D.D.!._.m.&.) ~ F ",
"f k { z.h.S.h.&.D.D.g.h.j.z.*.~.J._ t p d S >.:.3 R g.h.K.!.h.E g.S.S.!.g.&.&.*.g.J.!.x.!.D.I.D.g.n.i.9.d 1 k ) ( l { { O.S u a "
};
